<svg xmlns="http://www.w3.org/2000/svg" xmlns:xlink="http://www.w3.org/1999/xlink" viewBox="0 0 398.51 466.85"><defs><style>.cls-1{isolation:isolate;}.cls-2{fill:#009fe3;}.cls-3{fill:#e30613;}.cls-4{fill:#1d1d1b;}.cls-5{fill:#575756;}.cls-6{fill:#ffed00;}.cls-7{fill:#e94e1b;}.cls-8{fill:#fcea10;}.cls-9{fill:#fff;}</style></defs><g id="squares"><g class="cls-1"><path class="cls-2" d="M188,174.57c-3.28-.76-5.56-3-8.1-5.11q-5.34-4.4-11-8.43c-6.95-5-14.42-10.67-23.4-10.14-8.62.5-16.84,4.44-24.45,8.22S105,166.56,98.75,172.43c-6.47,6.12-6.36,15.11.44,20.89a165.73,165.73,0,0,0,22,15.76c7.69,4.57,15.88,4.44,24,1.14,8.5-3.46,16.71-7.78,25-11.75,6.79-3.26,16.2-9.66,10.87-18.36-2-3.26-5.68-5.55-8.56-8-3.43-2.88-6.81-5.83-10.29-8.64s-6.79-5.08-11.09-5.93c-4.5-.89-9.34-.13-13.81.67-8.43,1.52-13.86,6.44-20.33,11.57-2.64,2.08-6,3.23-8.41,5.59a8.9,8.9,0,0,0-1.07,11.5c2.45,3.61,6.33,6.59,9.43,9.64s6.53,7.51,10.93,9.05c7.82,2.74,15.86-4.79,22.44-8.08,6.07-3,20.25-4.24,17.44-14.35-1.16-4.17-5.8-7.82-8.71-10.79-3.26-3.33-6.48-6.63-11.2-7.6-8.29-1.71-19.41.6-25.13,7.12-5.46,6.22-6.15,17.91,3.4,20.68,8.66,2.51,19.48.42,24.11-7.85,4.72-8.43-8.23-16-12.95-7.57-.62,1.1-1.23,1.08-2.4,1.24-2.71.37-4.81-1.79-2.61,2.05,1.84,3.22.77,2,2.52.62a9.56,9.56,0,0,1,4.36-1.38c2.54-.38,4.59-.66,6.63.63a35.84,35.84,0,0,1,8.27,8.63v-7.57l-.42.87,4.48-3.45c-3.7,1.48-7.63,2.29-11.32,3.89a112.13,112.13,0,0,0-11.11,5.74c-.19.11-4.61,2.75-4.65,2.7q3.71,1,.65-1.13l-2.75-2.7c-2.89-2.85-6.8-5.66-9.15-8.92l.76,5.78c-.28,1.78-2.41,2.74.65,1A36.31,36.31,0,0,0,124.3,183c1.94-1.43,3.78-3,5.62-4.54a23.51,23.51,0,0,1,13.09-6c2.37-.3,4.68-.69,6.85.47s3.93,3,5.78,4.54l7,5.85,2.78,2.35,2.09,1.75c.78.84.91.8.41-.11l.76-5.78c-1.16,2.61-5.29,3.64-7.75,4.81l-9.62,4.6c-5.15,2.46-12.5,7.65-18.51,6.85-2.93-.39-5.63-2.71-7.94-4.35-2.83-2-5.64-4-8.46-6.08-1.84-1.31-5.6-5.22-7.67-5.6-.36,1.86-.14,2.29.67,1.26a7.83,7.83,0,0,1,1.77-1.35c1.48-1,3.08-2,4.65-2.89a185.36,185.36,0,0,1,17.58-9c5.74-2.58,12.39-5.65,18.27-2.23a133.85,133.85,0,0,1,16.21,11.35c5,4,9.65,8.63,16.14,10.13,9.39,2.19,13.4-12.27,4-14.46Z" transform="translate(-71.78 -75.02)"/></g><g class="cls-1"><path class="cls-2" d="M254,143.22c-3.28-.76-5.56-3-8.1-5.12q-5.35-4.4-11-8.43c-6.95-4.95-14.43-10.66-23.41-10.13-8.61.5-16.84,4.44-24.44,8.22s-16.08,7.45-22.28,13.31c-6.48,6.13-6.36,15.11.44,20.9a166.29,166.29,0,0,0,22,15.76c7.69,4.57,15.89,4.44,24,1.13,8.5-3.45,16.71-7.77,25-11.74,6.79-3.26,16.2-9.66,10.86-18.36-2-3.26-5.67-5.55-8.55-8-3.43-2.88-6.81-5.83-10.29-8.64s-6.79-5.08-11.09-5.93c-4.5-.89-9.34-.13-13.81.67-8.43,1.52-13.86,6.44-20.34,11.56-2.63,2.09-6,3.24-8.41,5.6a8.89,8.89,0,0,0-1.06,11.5c2.45,3.61,6.32,6.59,9.42,9.64s6.54,7.51,10.94,9.05c7.82,2.73,15.86-4.79,22.44-8.08,6.07-3,20.24-4.24,17.43-14.35-1.16-4.17-5.79-7.82-8.7-10.79-3.26-3.33-6.48-6.63-11.21-7.61-8.29-1.7-19.4.61-25.12,7.12-5.46,6.23-6.15,17.92,3.4,20.69,8.65,2.5,19.48.42,24.11-7.85,4.72-8.43-8.23-16-12.95-7.57-.62,1.1-1.23,1.08-2.41,1.24-2.7.37-4.8-1.8-2.61,2,1.85,3.23.77,2,2.53.63a9.56,9.56,0,0,1,4.35-1.38c2.55-.38,4.6-.66,6.64.63a35.84,35.84,0,0,1,8.27,8.63V150l-.43.86,4.49-3.44c-3.71,1.47-7.63,2.29-11.32,3.89a113.41,113.41,0,0,0-11.12,5.74c-.19.1-4.61,2.74-4.64,2.69q3.71,1.05.64-1.12L195,155.93c-2.88-2.84-6.8-5.65-9.14-8.92l.75,5.78c-.28,1.79-2.4,2.75.66,1a33.89,33.89,0,0,0,3.11-2.1c1.94-1.43,3.78-3,5.63-4.54a23.41,23.41,0,0,1,13.08-6c2.38-.3,4.69-.69,6.86.47a35.48,35.48,0,0,1,5.77,4.54l7,5.85,2.78,2.34,2.09,1.76c.77.83.91.8.41-.11l.76-5.78c-1.16,2.61-5.3,3.64-7.76,4.81l-9.61,4.6c-5.16,2.46-12.5,7.65-18.52,6.85-2.93-.39-5.62-2.72-7.93-4.35-2.84-2-5.65-4-8.47-6.08-1.83-1.31-5.59-5.22-7.66-5.6-.37,1.86-.14,2.28.67,1.26a7.83,7.83,0,0,1,1.77-1.35c1.48-1.05,3.08-2,4.64-2.89a190.32,190.32,0,0,1,17.58-9c5.74-2.57,12.4-5.64,18.27-2.22a134,134,0,0,1,16.22,11.35c5,4,9.65,8.63,16.14,10.13,9.39,2.19,13.4-12.27,4-14.46Z" transform="translate(-71.78 -75.02)"/></g><g class="cls-1"><path class="cls-2" d="M306.55,110.63c-3.28-.76-5.56-3-8.1-5.11q-5.34-4.39-11-8.43c-6.95-5-14.42-10.66-23.4-10.14-8.62.51-16.85,4.44-24.45,8.23s-16.08,7.44-22.28,13.31c-6.47,6.13-6.36,15.11.44,20.89a165.73,165.73,0,0,0,22,15.76c7.69,4.57,15.88,4.45,24,1.14,8.5-3.45,16.71-7.77,25-11.75,6.79-3.26,16.2-9.66,10.87-18.36-2-3.26-5.68-5.54-8.56-8-3.43-2.88-6.81-5.82-10.29-8.64s-6.79-5.08-11.09-5.93c-4.5-.89-9.34-.13-13.81.68-8.43,1.52-13.86,6.44-20.34,11.56-2.63,2.08-6,3.24-8.41,5.59A8.93,8.93,0,0,0,226.09,123c2.45,3.61,6.33,6.59,9.42,9.63,3.24,3.18,6.54,7.51,10.94,9.05,7.82,2.74,15.86-4.79,22.44-8.07,6.07-3,20.25-4.25,17.44-14.35-1.16-4.18-5.8-7.82-8.71-10.8-3.26-3.33-6.48-6.63-11.21-7.6-8.28-1.71-19.4.6-25.12,7.12-5.46,6.22-6.15,17.92,3.4,20.68,8.66,2.51,19.48.42,24.11-7.85,4.72-8.43-8.23-16-13-7.57-.62,1.11-1.23,1.09-2.41,1.25-2.7.36-4.8-1.8-2.61,2,1.85,3.23.78,2,2.53.62a9.68,9.68,0,0,1,4.36-1.38c2.54-.38,4.59-.65,6.63.63a36,36,0,0,1,8.27,8.63v-7.57l-.42.87,4.48-3.45c-3.7,1.48-7.63,2.29-11.32,3.9a110,110,0,0,0-11.11,5.73c-.19.11-4.61,2.75-4.65,2.7q3.71,1,.65-1.12l-2.75-2.71c-2.89-2.84-6.8-5.65-9.15-8.92l.75,5.78c-.27,1.78-2.4,2.74.66,1a34.56,34.56,0,0,0,3.11-2.1c1.94-1.44,3.79-3,5.63-4.55a23.43,23.43,0,0,1,13.09-6c2.37-.31,4.68-.69,6.85.47s3.93,3,5.77,4.53l7,5.86,2.78,2.34,2.09,1.76c.77.83.91.79.41-.11l.76-5.78c-1.16,2.61-5.3,3.63-7.76,4.81L269.85,127c-5.16,2.47-12.5,7.65-18.52,6.85-2.92-.39-5.62-2.71-7.93-4.35-2.84-2-5.64-4-8.46-6.07-1.84-1.32-5.6-5.23-7.67-5.61q-.54,2.81.67,1.27a7.29,7.29,0,0,1,1.77-1.35c1.48-1,3.08-2,4.65-2.9a188.8,188.8,0,0,1,17.57-9c5.74-2.58,12.4-5.65,18.27-2.23A133.26,133.26,0,0,1,286.42,115c5,4,9.65,8.62,16.14,10.13,9.39,2.18,13.4-12.28,4-14.47Z" transform="translate(-71.78 -75.02)"/></g><g class="cls-1"><path class="cls-2" d="M377.36,143.22c-3.28-.76-5.56-3-8.1-5.12q-5.34-4.4-11-8.43c-6.95-4.95-14.42-10.66-23.4-10.13-8.62.5-16.84,4.44-24.45,8.22s-16.08,7.45-22.28,13.31c-6.47,6.13-6.36,15.11.44,20.9a165.73,165.73,0,0,0,22,15.76c7.69,4.57,15.88,4.44,24,1.13,8.5-3.45,16.71-7.77,25-11.74,6.79-3.26,16.2-9.66,10.87-18.36-2-3.26-5.68-5.55-8.56-8-3.43-2.88-6.81-5.83-10.29-8.64s-6.79-5.08-11.09-5.93c-4.5-.89-9.34-.13-13.81.67-8.43,1.52-13.86,6.44-20.33,11.56-2.64,2.09-6,3.24-8.42,5.6a8.91,8.91,0,0,0-1.06,11.5c2.45,3.61,6.33,6.59,9.43,9.64s6.53,7.51,10.93,9.05c7.82,2.73,15.86-4.79,22.44-8.08,6.07-3,20.25-4.24,17.44-14.35-1.16-4.17-5.8-7.82-8.71-10.79-3.26-3.33-6.48-6.63-11.2-7.61-8.29-1.7-19.41.61-25.13,7.12-5.46,6.23-6.15,17.92,3.4,20.69,8.66,2.5,19.48.42,24.11-7.85,4.72-8.43-8.23-16-12.95-7.57-.62,1.1-1.23,1.08-2.4,1.24-2.71.37-4.81-1.8-2.61,2,1.84,3.23.77,2,2.52.63a9.56,9.56,0,0,1,4.36-1.38c2.54-.38,4.59-.66,6.63.63a35.84,35.84,0,0,1,8.27,8.63V150l-.42.86,4.48-3.44c-3.7,1.47-7.63,2.29-11.32,3.89a112.13,112.13,0,0,0-11.11,5.74c-.19.1-4.61,2.74-4.65,2.69q3.7,1.05.65-1.12l-2.75-2.71c-2.89-2.84-6.8-5.65-9.15-8.92l.76,5.78c-.28,1.79-2.41,2.75.65,1a34,34,0,0,0,3.12-2.1c1.94-1.43,3.78-3,5.62-4.54a23.44,23.44,0,0,1,13.09-6c2.37-.3,4.68-.69,6.85.47a36,36,0,0,1,5.78,4.54l7,5.85,2.78,2.34,2.09,1.76c.78.83.91.8.41-.11l.76-5.78c-1.16,2.61-5.29,3.64-7.75,4.81l-9.62,4.6c-5.15,2.46-12.5,7.65-18.51,6.85-2.93-.39-5.63-2.72-7.94-4.35-2.83-2-5.64-4-8.46-6.08-1.84-1.31-5.6-5.22-7.67-5.6q-.54,2.79.67,1.26a7.83,7.83,0,0,1,1.77-1.35c1.48-1.05,3.08-2,4.65-2.89a187.82,187.82,0,0,1,17.58-9c5.74-2.57,12.39-5.64,18.27-2.22a133.85,133.85,0,0,1,16.21,11.35c5,4,9.65,8.63,16.14,10.13,9.39,2.19,13.4-12.27,4-14.46Z" transform="translate(-71.78 -75.02)"/></g><g class="cls-1"><path class="cls-2" d="M437.52,177.75c-3.28-.76-5.56-3-8.1-5.11q-5.34-4.39-11-8.43c-6.95-5-14.42-10.66-23.4-10.14-8.62.51-16.85,4.44-24.45,8.22s-16.08,7.45-22.28,13.32c-6.47,6.13-6.36,15.11.44,20.89a165.73,165.73,0,0,0,22,15.76c7.69,4.57,15.88,4.45,24,1.14,8.5-3.46,16.71-7.78,25-11.75,6.79-3.26,16.2-9.66,10.87-18.36-2-3.26-5.68-5.54-8.56-8-3.43-2.88-6.81-5.83-10.29-8.64s-6.79-5.08-11.09-5.93c-4.5-.89-9.34-.13-13.81.68-8.43,1.51-13.86,6.44-20.34,11.56-2.63,2.08-6,3.24-8.41,5.59a8.92,8.92,0,0,0-1.06,11.51c2.45,3.61,6.33,6.58,9.42,9.63s6.54,7.51,10.94,9.05c7.82,2.74,15.86-4.79,22.44-8.08,6.07-3,20.25-4.24,17.44-14.35-1.16-4.17-5.8-7.82-8.71-10.79-3.26-3.33-6.48-6.63-11.21-7.6-8.28-1.71-19.4.6-25.12,7.12-5.46,6.22-6.15,17.91,3.4,20.68,8.66,2.51,19.48.42,24.11-7.85,4.72-8.43-8.23-16-12.95-7.57-.62,1.1-1.23,1.09-2.41,1.25-2.7.36-4.8-1.8-2.61,2,1.85,3.23.77,2,2.53.62a9.56,9.56,0,0,1,4.36-1.38c2.54-.38,4.59-.66,6.63.63a35.84,35.84,0,0,1,8.27,8.63v-7.57l-.42.87,4.48-3.45c-3.7,1.48-7.63,2.29-11.32,3.89a112.13,112.13,0,0,0-11.11,5.74c-.19.11-4.61,2.75-4.65,2.7q3.71,1,.65-1.13l-2.75-2.7c-2.89-2.84-6.8-5.65-9.15-8.92l.75,5.78c-.27,1.78-2.4,2.74.66,1a34.66,34.66,0,0,0,3.11-2.11c1.94-1.43,3.79-3,5.63-4.54a23.51,23.51,0,0,1,13.09-6c2.37-.3,4.68-.68,6.85.48s3.93,3,5.77,4.53l7,5.86,2.78,2.34,2.09,1.76c.77.83.91.79.41-.12l.76-5.77c-1.16,2.61-5.3,3.63-7.76,4.81l-9.61,4.59c-5.16,2.47-12.5,7.65-18.52,6.85-2.92-.39-5.62-2.71-7.93-4.35-2.84-2-5.64-4-8.46-6.08-1.84-1.31-5.6-5.22-7.67-5.6q-.54,2.81.67,1.26a7.51,7.51,0,0,1,1.77-1.34c1.48-1.05,3.08-2,4.65-2.9a186.4,186.4,0,0,1,17.57-9c5.74-2.58,12.4-5.65,18.27-2.23a134.3,134.3,0,0,1,16.22,11.35c5,4,9.65,8.63,16.14,10.14,9.39,2.18,13.4-12.28,4-14.47Z" transform="translate(-71.78 -75.02)"/></g><g class="cls-1"><path class="cls-3" d="M84.42,210.06l25.17,11.22c3.52,1.57,7.57,2.92,10.75,5.14,2.93,2.05,2.38,5.08,2.27,8.35-.58,18.19-1.26,36.37-1.89,54.55L132,282.85q-10.59-4.65-20.74-10.22c-3.51-1.94-7-3.92-10.38-6.08-2.88-1.83-3.75-2.61-4-6-1-16.58-1.12-33.28-1.68-49.88l-9.49,7.23c5.88,2.26,11.72,4.62,17.5,7.14,2.89,1.27,5.78,2.55,8.64,3.89.73.34,2.85,1.51,2.81,1.44.58,1,.14,3.59.17,4.73q.25,9.47-.36,18.93c-.2,3.15-.48,6.3-.83,9.43-.17,1.53-.35,3.06-.56,4.59l-.28,1.87q-.84,3.43.38.58l7.3-1.93c-2-.31-7.39-5.84-9.72-7.68-.94-.74-2-1.44-2.84-2.23s-.81-1-.57,0c-.51-2.15.47-5.72.56-7.9a122.78,122.78,0,0,0-2.81-30.52l-11,8.47c4.44,2.87,11.82,7.23,12.1,13.24.14,3.21-1.61,6.53-2.34,9.61A21.74,21.74,0,0,0,104,263.5c2.95,9.15,17.44,5.24,14.47-4-1.2-3.72,1.15-7.72,1.94-11.38a23.16,23.16,0,0,0-.84-13.95c-3.3-8.25-10.67-13.7-17.89-18.38-5.83-3.77-12.3,2.44-11,8.47A106,106,0,0,1,93,248c-.1,6.59-2.36,14.3,2.62,19.7,2.3,2.49,5.44,4.48,8.09,6.57,3,2.37,6.05,5.31,9.33,7.32,2.83,1.73,6.2,2.28,9.24.66,3.61-1.92,4.59-5.58,5.14-9.31a229,229,0,0,0,2.31-23.67c.31-7.32,1.21-16.06-.6-23.24-2-7.89-9.93-10.26-16.61-13.21q-11.28-5-22.81-9.41c-4.52-1.74-9.65,2.71-9.5,7.23l1,29.93.47,14c.14,4.13-.12,8.65,1,12.67,2.21,8.13,10.22,12.17,17,16.07a250.66,250.66,0,0,0,24.77,12.49c5.18,2.27,11.07-.35,11.29-6.48l1.1-31.73c.34-9.77,1.92-20.39.57-30.08-1.32-9.47-8.6-14-16.64-17.58Q106.38,203.49,92,197.11c-3.72-1.66-8-1.05-10.26,2.69-1.9,3.18-1,8.62,2.69,10.26Z" transform="translate(-71.78 -75.02)"/></g><g class="cls-1"><path class="cls-3" d="M81.42,289.18l25.17,11.22c3.52,1.57,7.57,2.92,10.75,5.14,2.93,2,2.38,5.09,2.27,8.36-.58,18.18-1.26,36.36-1.89,54.54L129,362c-7.06-3.1-14-6.48-20.74-10.22-3.51-1.93-7-3.92-10.38-6.07-2.88-1.84-3.75-2.62-4-6-1-16.58-1.12-33.28-1.68-49.88L82.75,297c5.88,2.27,11.72,4.62,17.5,7.14,2.89,1.27,5.78,2.55,8.64,3.89.73.34,2.85,1.51,2.81,1.44.58,1,.14,3.59.17,4.73q.25,9.46-.36,18.93-.3,4.73-.83,9.44c-.17,1.53-.35,3.06-.56,4.58l-.28,1.87q-.84,3.43.38.58l7.3-1.93c-2-.31-7.39-5.84-9.72-7.67-.94-.74-2-1.45-2.84-2.24s-.81-1-.57.05c-.51-2.15.47-5.71.56-7.9a122.78,122.78,0,0,0-2.81-30.52l-11,8.47c4.44,2.87,11.82,7.23,12.1,13.24.14,3.21-1.61,6.53-2.34,9.61a21.74,21.74,0,0,0,.13,11.89c2.95,9.15,17.44,5.24,14.47-4-1.2-3.72,1.15-7.72,1.94-11.38a23.16,23.16,0,0,0-.84-13.95c-3.3-8.24-10.67-13.7-17.89-18.37-5.83-3.78-12.3,2.43-11,8.47A105.82,105.82,0,0,1,90,327.15c-.1,6.59-2.36,14.3,2.62,19.7,2.3,2.49,5.44,4.48,8.09,6.57,3,2.38,6.05,5.31,9.33,7.32,2.83,1.73,6.2,2.28,9.24.66,3.61-1.92,4.59-5.57,5.14-9.31a228.72,228.72,0,0,0,2.31-23.67c.31-7.32,1.21-16.06-.6-23.24-2-7.89-9.93-10.26-16.61-13.21q-11.28-5-22.81-9.41c-4.52-1.74-9.65,2.71-9.5,7.23l1,29.93.47,14c.14,4.13-.12,8.65,1,12.68,2.21,8.12,10.22,12.16,17,16.06a250.66,250.66,0,0,0,24.77,12.49c5.18,2.27,11.07-.35,11.29-6.48l1.1-31.73c.34-9.76,1.92-20.39.57-30.08-1.32-9.47-8.6-14-16.64-17.58Q103.38,282.62,89,276.23c-3.72-1.66-8-1.05-10.26,2.69-1.9,3.18-1,8.62,2.69,10.26Z" transform="translate(-71.78 -75.02)"/></g><g class="cls-1"><path class="cls-3" d="M81.42,370.74,106.59,382c3.52,1.57,7.57,2.91,10.75,5.14,2.93,2,2.38,5.08,2.27,8.35-.58,18.19-1.26,36.37-1.89,54.55L129,443.52c-7.06-3.1-14-6.48-20.74-10.21-3.51-1.94-7-3.93-10.38-6.08-2.88-1.83-3.75-2.61-4-6-1-16.58-1.12-33.28-1.68-49.88l-9.49,7.23c5.88,2.26,11.72,4.62,17.5,7.14,2.89,1.26,5.78,2.55,8.64,3.89.73.34,2.85,1.51,2.81,1.43.58,1,.14,3.6.17,4.74q.25,9.47-.36,18.93-.3,4.73-.83,9.43c-.17,1.53-.35,3.06-.56,4.59l-.28,1.87q-.84,3.43.38.58l7.3-1.93c-2-.31-7.39-5.85-9.72-7.68-.94-.74-2-1.44-2.84-2.23s-.81-1-.57.05c-.51-2.15.47-5.72.56-7.9A122.86,122.86,0,0,0,102.14,381l-11,8.47c4.44,2.88,11.82,7.24,12.1,13.25.14,3.21-1.61,6.52-2.34,9.6a21.77,21.77,0,0,0,.13,11.9c2.95,9.15,17.44,5.24,14.47-4-1.2-3.72,1.15-7.72,1.94-11.38a23.2,23.2,0,0,0-.84-14c-3.3-8.24-10.67-13.69-17.89-18.37-5.83-3.77-12.3,2.44-11,8.47A106,106,0,0,1,90,408.71c-.1,6.59-2.36,14.3,2.62,19.7,2.3,2.49,5.44,4.47,8.09,6.56,3,2.38,6.05,5.32,9.33,7.33,2.83,1.73,6.2,2.28,9.24.66,3.61-1.93,4.59-5.58,5.14-9.31A229,229,0,0,0,126.76,410c.31-7.32,1.21-16.07-.6-23.24-2-7.89-9.93-10.26-16.61-13.21q-11.28-5-22.81-9.42c-4.52-1.74-9.65,2.72-9.5,7.24l1,29.93.47,14c.14,4.14-.12,8.66,1,12.68,2.21,8.13,10.22,12.16,17,16.07a252.86,252.86,0,0,0,24.77,12.49c5.18,2.27,11.07-.35,11.29-6.48l1.1-31.74c.34-9.76,1.92-20.38.57-30.07-1.32-9.47-8.6-14-16.64-17.58Q103.38,364.17,89,357.79c-3.72-1.66-8-1.05-10.26,2.69-1.9,3.18-1,8.61,2.69,10.26Z" transform="translate(-71.78 -75.02)"/></g><g class="cls-1"><path class="cls-3" d="M145.45,402.18l25.16,11.22c3.53,1.57,7.58,2.92,10.76,5.14,2.93,2,2.38,5.09,2.27,8.36-.58,18.18-1.26,36.36-1.9,54.54L193,475c-7.06-3.1-14-6.48-20.74-10.22-3.51-1.93-7-3.92-10.38-6.07-2.88-1.84-3.75-2.61-4-6-1-16.58-1.12-33.27-1.68-49.88L146.78,410c5.88,2.27,11.72,4.62,17.5,7.14,2.89,1.27,5.78,2.55,8.64,3.89.73.34,2.85,1.51,2.81,1.44.58,1,.14,3.59.17,4.73q.25,9.46-.36,18.93-.3,4.73-.83,9.44c-.17,1.53-.35,3.06-.56,4.58l-.28,1.87c-.56,2.29-.43,2.49.38.58l7.3-1.93c-2-.31-7.4-5.84-9.72-7.67-.94-.74-2-1.44-2.84-2.24s-.81-1-.57.05c-.51-2.14.47-5.71.56-7.9a122.78,122.78,0,0,0-2.81-30.52l-11,8.47c4.44,2.87,11.82,7.23,12.1,13.24.14,3.21-1.61,6.53-2.34,9.61a21.73,21.73,0,0,0,.13,11.89c3,9.15,17.44,5.24,14.47-4-1.2-3.72,1.15-7.72,1.94-11.38a23.16,23.16,0,0,0-.84-13.95c-3.3-8.24-10.67-13.7-17.89-18.37-5.83-3.78-12.3,2.43-11,8.47a105.82,105.82,0,0,1,2.35,23.75c-.1,6.59-2.36,14.3,2.62,19.7,2.3,2.49,5.44,4.48,8.09,6.57,3,2.38,6,5.31,9.33,7.32,2.83,1.73,6.2,2.28,9.24.66,3.61-1.92,4.59-5.57,5.14-9.3a229.18,229.18,0,0,0,2.31-23.68c.31-7.32,1.21-16.06-.6-23.24-2-7.89-9.93-10.25-16.61-13.21q-11.28-5-22.81-9.41c-4.52-1.74-9.65,2.71-9.5,7.23l1,29.93.47,14c.14,4.13-.12,8.66,1,12.68,2.2,8.12,10.22,12.16,17,16.06a250.66,250.66,0,0,0,24.77,12.49c5.18,2.27,11.07-.35,11.28-6.48l1.11-31.73c.34-9.76,1.92-20.39.57-30.08-1.32-9.47-8.6-14-16.64-17.58q-14.37-6.44-28.76-12.82c-3.72-1.66-8-1.05-10.26,2.69-1.9,3.18-1,8.62,2.69,10.26Z" transform="translate(-71.78 -75.02)"/></g><g class="cls-1"><path class="cls-3" d="M210.44,438.25l25.16,11.21c3.53,1.58,7.58,2.92,10.76,5.15,2.93,2.05,2.37,5.08,2.27,8.35-.59,18.19-1.27,36.37-1.9,54.55L258,511c-7.07-3.1-14-6.48-20.75-10.21-3.5-1.94-7-3.93-10.38-6.08-2.87-1.83-3.74-2.61-3.95-6-1-16.58-1.12-33.28-1.68-49.88l-9.49,7.23c5.88,2.26,11.72,4.62,17.49,7.14q4.35,1.89,8.64,3.89c.74.34,2.86,1.51,2.81,1.43.59,1,.15,3.6.18,4.74q.24,9.46-.36,18.93c-.21,3.15-.48,6.29-.83,9.43-.17,1.53-.35,3.06-.56,4.59l-.28,1.87q-.84,3.43.38.58l7.3-1.93c-2-.31-7.4-5.85-9.73-7.68-.94-.74-1.94-1.44-2.84-2.23s-.81-1-.56,0c-.51-2.15.47-5.72.56-7.9a123.33,123.33,0,0,0-2.81-30.53l-11,8.47c4.44,2.88,11.81,7.24,12.09,13.24.15,3.22-1.61,6.53-2.33,9.61a21.68,21.68,0,0,0,.13,11.9c2.95,9.15,17.44,5.23,14.46-4-1.2-3.72,1.15-7.72,1.95-11.38a23.28,23.28,0,0,0-.84-14c-3.3-8.24-10.67-13.69-17.89-18.37-5.83-3.77-12.3,2.44-11,8.47a106,106,0,0,1,2.36,23.76c-.1,6.59-2.36,14.3,2.62,19.7,2.3,2.49,5.43,4.47,8.09,6.56,3,2.38,6,5.32,9.33,7.33a9.15,9.15,0,0,0,9.24.66c3.61-1.93,4.58-5.58,5.13-9.31a226.28,226.28,0,0,0,2.32-23.67c.3-7.32,1.21-16.07-.6-23.24-2-7.89-9.94-10.26-16.61-13.21q-11.3-5-22.82-9.42c-4.52-1.74-9.64,2.72-9.49,7.24l1,29.93.47,14c.14,4.13-.12,8.66,1,12.68,2.2,8.13,10.21,12.16,17,16.07A254.15,254.15,0,0,0,250.45,524c5.18,2.27,11.07-.35,11.28-6.48l1.11-31.74c.33-9.76,1.92-20.38.57-30.07-1.32-9.47-8.6-14-16.64-17.59Q232.4,431.69,218,425.3c-3.73-1.66-8-1.05-10.26,2.69-1.91,3.18-1,8.61,2.69,10.26Z" transform="translate(-71.78 -75.02)"/></g><g class="cls-1"><path class="cls-4" d="M377.86,215.64c-3.84,3.22-4.69,8.24-4.16,13a145.75,145.75,0,0,1,1,17.85c-.17,12.17-1.33,24.29.09,36.43l11.28-6.48c-6.92-4.82-12.45-9.37-16.08-17.09a53.66,53.66,0,0,0-5.67-9.39c-1.53-2-5.74-6.12-5.6-8.82l-1,3.79c.95-1.63,4.36-2.93,5.89-4.22a17.61,17.61,0,0,0,5.05-6.7,13.63,13.63,0,0,0,1.05-4.21c.22-2.46-.67.1.27-.4,1.86-1,4.05-3.24,6.27-3.46l-3.79-1c-3.05-2-1.42-2.06-2.4.6a32.4,32.4,0,0,1-2.37,4.27,34.08,34.08,0,0,0-4,10.22c-1.34,7.27-.69,14.87-.48,22.21l14.73-2c-1.7-6.2-5.78-10.87-8.2-16.68-2.55-6.14,2.09-12.88,2.42-19.18.35-6.46-1-15.44-5.28-20.56-4.5-5.4-12.39-9.77-19.14-11.43-9.38-2.29-13.38,12.17-4,14.47,4.86,1.19,11.25,4.24,12.44,9.38.65,2.82,1.35,5.82.92,8.74s-1.86,6-2.5,9a25.33,25.33,0,0,0,2,16.65c2.14,4.63,5.53,8.64,6.9,13.6,2.21,8,15,6.59,14.73-2-.19-6.86-1.66-15.45.91-22,2.79-7.1,8-12.51,6.15-20.79-3.62-16.42-27.9-4.9-30.1,6.69-.65,3.42-1.94,3.62-4.94,5.77-2.62,1.87-5.32,4-6.21,7.25-1.84,6.77,3.62,13.36,7.38,18.38,4.28,5.72,6.46,12.54,10.93,18.1s10.38,9.71,16.2,13.76c4.39,3.06,11.93-.94,11.29-6.47-1.19-10.22-.59-20.42-.24-30.67.17-5.11.28-10.23,0-15.33-.15-2.56-.47-5.08-.75-7.62a24.26,24.26,0,0,1-.27-2.69c0-1.7,0-1.82,0-.35,7.41-6.2-3.25-16.77-10.61-10.61Z" transform="translate(-71.78 -75.02)"/></g><g class="cls-1"><path class="cls-4" d="M331.43,215.5a72.26,72.26,0,0,1-.46-15.42c.2-4.3,1.1-8.79-1.28-12.66-4-6.49-12.95-7.5-18-12.84-4.48-4.73-12.87-1.1-12.81,5.3a28.34,28.34,0,0,0,3,12.85c1.64,3.16,4.69,5.52,5.4,9.05.78,3.93.58,7.74,2.07,11.55,1.66,4.24,4.37,7.73,7.23,11.23,5.62,6.88,15.48-1.89,11.78-9.09-2-4-5.32-4.73-9-6.45-2.92-1.35-5.31-3.44-8.37-4.65-6.88-2.73-15-2.08-21.4-5.88l-1.79,13.71c10.3-1.43,28.48-.48,26.44-15.5-.55-4-5.7-6.22-9.23-5.23-4.33,1.21-5.78,5.17-5.23,9.22l.14,1.08v-4c2.47-2,2.92-2.86,1.37-2.48-.81.13-1.62.25-2.44.35l-4.7.65-10.34,1.43c-6.69.93-6.84,10.73-1.79,13.71,6,3.57,12.53,4.17,19.22,5.65a22.72,22.72,0,0,1,7.76,3.13,32.42,32.42,0,0,0,3.47,2.11,29.15,29.15,0,0,0,2.9,1.15c1.53.64,1.56.49.07-.44L327.18,214c-1.84-2.26-3.69-4.71-4.38-7.6-.75-3.2-.42-6.58-1.33-9.77-1.78-6.26-7.52-9.88-7.59-16.7l-12.8,5.3a34,34,0,0,0,8.42,6.31c1.28.7,2.6,1.35,3.89,2,.8.44,4.29,3.23,3.35,1.47-.58-1.35-.77-1-.55,1.19-.08,1.3-.16,2.59-.22,3.89-.1,1.94-.18,3.89-.19,5.84A80.24,80.24,0,0,0,317,219.49c1.58,9.5,16,5.47,14.46-4Z" transform="translate(-71.78 -75.02)"/></g><g class="cls-1"><path class="cls-4" d="M276.24,169.62a23.78,23.78,0,0,0,6.55,2.82,7.81,7.81,0,0,0,5.78-.75A7.5,7.5,0,0,0,286.78,158a18.23,18.23,0,0,1-2.16-.72l1.79.76a16.91,16.91,0,0,1-2.6-1.36,7.57,7.57,0,0,0-10.26,2.7,7.66,7.66,0,0,0,2.69,10.26Z" transform="translate(-71.78 -75.02)"/></g><g class="cls-1"><path class="cls-4" d="M372.13,306.69c3.07,3.12,2.49,8,2.53,12.07.06,5.28.86,10.45,1.43,15.69a210.86,210.86,0,0,1,.78,34.36l9.5-7.23c-3.11-1.19-6.55-2.28-9.28-4.2l3.44,4.48c-.63-2.73,1.63-6.72,2.2-9.43a44.86,44.86,0,0,0,.82-9.46,64.09,64.09,0,0,1,2.92-19.92c2.92-9.22-11.55-13.17-14.46-4A75.11,75.11,0,0,0,368.73,336c-.42,5.43.08,10.56-1.35,15.87-1.28,4.76-3.34,11.12-.56,15.76s10.76,6.56,15.56,8.41,9.24-2.83,9.49-7.24A221.61,221.61,0,0,0,390.44,329c-1.4-11.33,1.06-24-7.7-32.91-6.79-6.89-17.39,3.72-10.61,10.6Z" transform="translate(-71.78 -75.02)"/></g><g class="cls-1"><path class="cls-4" d="M356.32,385.43A34.69,34.69,0,0,0,369,392.64V378.18c-6.52,2.74-14.54,5.51-19.72,10.52-1.78,1.73-2.8,4.06-4.74,5.57-2.76,2.13-6.67,3.48-9.76,5.06l9.09,11.78a56.76,56.76,0,0,0,8.9-8.63,49.88,49.88,0,0,0,3.4-4.87c.44-.71,2.6-3.93,2.18-3.88,4-.52,7.5-3.08,7.5-7.5,0-3.65-3.45-8-7.5-7.5-6.3.81-10.35,3.76-13.8,9.08A50.62,50.62,0,0,1,333.3,400.5c-6.91,5.6,1.89,15.47,9.09,11.78,5.59-2.85,11.84-5.23,15.67-10.44,3.45-4.68,9.67-7,15-9.2,6.56-2.76,7.62-12.07,0-14.46a16.64,16.64,0,0,1-6.11-3.36c-7.24-6.32-17.89,4.25-10.6,10.61Z" transform="translate(-71.78 -75.02)"/></g><g class="cls-1"><path class="cls-4" d="M283.61,440.89V429c0-3.92-3.45-7.68-7.5-7.5a7.63,7.63,0,0,0-7.5,7.5v11.89c0,3.93,3.45,7.68,7.5,7.5a7.63,7.63,0,0,0,7.5-7.5Z" transform="translate(-71.78 -75.02)"/></g><g class="cls-1"><path class="cls-4" d="M286.94,436.61c2.17-2,5.8-2.17,8.51-3.06,3.32-1.1,6.43-2.76,9.71-4,6.57-2.41,13.71-1.87,19.6-6.16,3.3-2.4,4.84-6.49,2.69-10.26-1.85-3.25-7-5.07-10.26-2.69-2.83,2.06-5.91,2.4-9.29,3a51.15,51.15,0,0,0-11.51,3.62c-6.84,3-14.36,3.75-20.06,8.91-7.17,6.5,3.46,17.08,10.61,10.61Z" transform="translate(-71.78 -75.02)"/></g><g class="cls-1"><path class="cls-4" d="M275.43,434c-6.81-9-15.75-9.43-25.78-12.52-4.38-1.34-8.28-3.91-12.67-5.26-4.82-1.48-10.15-1.43-14.54-4.07-8.3-5-15.85,8-7.57,12.95,3.92,2.36,8.07,3.42,12.51,4.3a51.45,51.45,0,0,1,11.84,4,65.7,65.7,0,0,0,13.56,4.19c3,.68,7.64,1.27,9.7,4,2.46,3.25,6.44,4.87,10.26,2.69,3.2-1.82,5.13-7,2.69-10.26Z" transform="translate(-71.78 -75.02)"/></g><g class="cls-1"><path class="cls-4" d="M204.33,398.79a66.78,66.78,0,0,1-24.27-23.3c-4.12-6.71-13.28-3.4-14,3.78,1.79-.45,2-1,.76-1.55l-7.57,12.95,8.91,5.26c8.32,4.92,15.88-8,7.57-12.95l-8.91-5.26c-8.41-5-15.45,7.56-7.57,12.95,9.77,6.68,20.77-.61,21.81-11.4l-14,3.79a82.41,82.41,0,0,0,29.65,28.68c8.41,4.77,16-8.19,7.57-12.95Z" transform="translate(-71.78 -75.02)"/></g><g class="cls-1"><path class="cls-4" d="M148.26,233.14c9.41-.6,15.9-6.3,23-11.94,6.19-4.95,13.85-13.37,22.23-14,8-.63,10.69-12.59,2-14.73-7.25-1.78-13.75.52-19.67,4.8s-11.2,9.15-11.39,17c-.3,12.72,7.51,25.87,16.65,34.14V237.77c-7.77,8.48-12.79,18-16.54,28.77-1.44,4.14-3,7.92-6.83,10.3-4.15,2.56-9.36,3.33-14.07,4.22l9.5,7.23,1.44-28.58c.22-4.34.38-8.68.66-13,.19-2.93.27-6.84,2.26-9.22,4.28-5.13,7,7.59,6.88,10.36-.15,3.94-3.24,8.06-5,11.51s-3.6,10-6.59,12.36l5.3-2.2-1.12-.06,5.3,2.19c2.27,2.61.81,1,.52-1a38.16,38.16,0,0,1-.33-4.67,89.44,89.44,0,0,1,.43-9.54c.29-3.44.29-8.9,3.1-10.26l-11.29-6.47.8,17.43c.44,9.61,15.45,9.66,15,0l-.8-17.43c-.27-6-6.09-9-11.28-6.48-7.52,3.64-9.33,11.85-10.17,19.41a91.39,91.39,0,0,0-.72,15.24c.25,4.47.46,10.16,3.56,13.69a8.74,8.74,0,0,0,12.31.73c3.56-2.92,5.2-7.94,7.22-12,4.59-9.14,10.27-17.6,8-28.23-1.65-7.59-4.95-16.35-12.51-19.73-8.32-3.72-17.69.8-22.08,8.34-4.6,7.93-3.91,18.27-4.35,27.1l-1.54,30.49c-.27,5.22,5,8.09,9.49,7.23,11-2.08,22.06-5.7,27.75-16.18,2.75-5,3.93-10.75,6.3-16a56.68,56.68,0,0,1,10-15c2.63-2.87,3.11-7.79,0-10.61A37.25,37.25,0,0,1,180.32,220c-1-3.61-1.72-5.76,1.24-8.33,2.51-2.18,6.31-5.64,9.9-4.76l2-14.74c-9.42.75-16.48,5.43-23.71,11.14-3.83,3-7.62,6.1-11.44,9.14-2.87,2.28-6.19,5.46-10,5.7-9.59.62-9.66,15.62,0,15Z" transform="translate(-71.78 -75.02)"/></g><g class="cls-1"><path class="cls-4" d="M143.49,311.13a340.87,340.87,0,0,0-.37,45.2c.36,6.09-.72,15.51,4.85,19.51,5.74,4.13,10.14-1,15.13-3.37,4.41-2.1,8.56-4.83,10-9.81,2-7-3-11.45-4.52-17.7s-1.07-13.56-1.17-19.94c-.12-7.78.07-15.56.52-23.33.55-9.64-14.46-9.61-15,0-.81,14.23-1.23,28.92.52,43.09a29.24,29.24,0,0,0,2.42,9c.54,1.16,1.19,3.13,2.12,4,.69.61.1,1.37.92.18-.64.93-3.4,1.58-4.44,2.1a22.61,22.61,0,0,0-3,1.74L150,362.92q-1.93,1.59.54-.2l7.3,1.93c1.11,2.13,1.39,2,.86-.48-.11-1.3-.21-2.61-.31-3.92q-.21-2.94-.36-5.89-.4-7.37-.47-14.74c-.08-9.51.26-19,1-28.49s-14.29-9.59-15,0Z" transform="translate(-71.78 -75.02)"/></g><g class="cls-1"><path class="cls-4" d="M218.91,194.79l-1.4,1.67-3.79,1q-3.89-6.9-4.35-2.34c-.29,1.2-.53,2.4-.71,3.62-.33,2.18-.58,4.38-.7,6.58a111.26,111.26,0,0,0,.44,13.9,7.72,7.72,0,0,0,7.5,7.5c7.76.52,10.85-5.45,17.34-7.74,7.07-2.51,17,0,23-5.11s4.44-16.29-3-19c-3.6-1.33-6.42.31-10,.59a12.74,12.74,0,0,1-9-2.82c-3-2.53-7.62-3.17-10.61,0a18.29,18.29,0,0,0-5,9.12c-1.93,9.41,12.45,13.46,14.46,4,.82-3.86,4.06-6.86,5-10.84a22,22,0,0,0-.51-12c-1.26-3.76-3.62-7.07-7.64-8-5-1.16-8,2.07-11.56,4.9-5.85,4.69.47,14.92,7.3,12.54,5.59-1.95,10.11-5.38,12.74-10.78,4.23-8.63-8.7-16.25-12.95-7.57-.89,1.82-1.81,3.2-3.78,3.88l7.3,12.54c1.4-.59,1.72-.94,1-1h-4c-3.69-1.07-1.82-1.06-2.33,1.57a9.43,9.43,0,0,1-1.52,3.16,23.88,23.88,0,0,0-3.51,7.68l14.46,4a3.86,3.86,0,0,1,1.1-2.5H223.65a29.19,29.19,0,0,0,13.2,6.65,28.17,28.17,0,0,0,7.15.52c2.1-.14,4.41-1.11,6.34-1.2l-3.78-1q-1.84-4.6-1.81-1.29l1-3.79c2.61-1.26,3-1.67,1.17-1.21l-1.78.25-5.32.76a87.62,87.62,0,0,0-10.59,1.63,23.7,23.7,0,0,0-8,4.2c-1.94,1.45-3.55,3.13-5.35,3l7.5,7.5a96.57,96.57,0,0,1-.39-14.82c.36-4.48,2.41-9,1.45-13.51-2-9.36-13.13-10.84-18.5-3.7-2.46,3.26-.5,8.35,2.69,10.26,3.81,2.28,7.84.53,10.26-2.69Z" transform="translate(-71.78 -75.02)"/></g><g class="cls-1"><path class="cls-4" d="M255,171.21l2.29-.13-2-14.73-6.56,1.11a7.52,7.52,0,0,0-4.48,3.45,7.67,7.67,0,0,0-.76,5.78c1.36,4.18,5.07,5.94,9.23,5.23l6.56-1.1a7.49,7.49,0,0,0,4.48-3.45,7.72,7.72,0,0,0,.89-4.78c-.47-3.5-3.63-6.72-7.37-6.51l-2.29.13c-3.91.23-7.69,3.3-7.5,7.5.17,3.88,3.3,7.74,7.5,7.5Z" transform="translate(-71.78 -75.02)"/></g><g class="cls-1"><path class="cls-5" d="M316.8,244.39c3.81,3.57,7.75,7,11.86,10.21s7.75,5.34,10.08,10.09q7.25,14.78,14.42,29.58c4.23,8.68,17.17,1.09,12.95-7.57-5.08-10.42-9.89-21-15.26-31.32-2.42-4.63-6.1-7.25-10.18-10.32a162,162,0,0,1-13.27-11.28c-7-6.58-17.67,4-10.6,10.61Z" transform="translate(-71.78 -75.02)"/></g><g class="cls-1"><path class="cls-5" d="M349.84,289.19c1.45,6.82,4,13.37,5.45,20.14s.42,14.71,0,21.63c-.52,9.65,14.48,9.62,15,0,.43-7.9,1.07-16.1-.26-23.95-1.24-7.33-4.2-14.48-5.77-21.8-2-9.44-16.47-5.45-14.46,4Z" transform="translate(-71.78 -75.02)"/></g><g class="cls-1"><path class="cls-5" d="M354.65,334.2c.68,7.38-3,13.59-6.5,19.82a168.8,168.8,0,0,1-11.26,17.72,80,80,0,0,1-33.67,26.44c-7.09,3.08-14.14,6-21.87,7a165.59,165.59,0,0,1-23.44,1.44,62.06,62.06,0,0,1-22.4-4.13c-7.16-2.91-13.66-7.36-20.08-11.59-8.08-5.33-15.6,7.65-7.57,12.95,7.29,4.81,14.62,9.48,22.75,12.75a76.47,76.47,0,0,0,26.39,5,171.52,171.52,0,0,0,27-1.75c9.53-1.25,18.06-4.88,26.81-8.68C326.7,404.21,339,393.82,349.37,380a179,179,0,0,0,12.91-20.48c4.29-7.8,8.22-16.15,7.37-25.28-.88-9.53-15.89-9.62-15,0Z" transform="translate(-71.78 -75.02)"/></g><g class="cls-1"><path class="cls-5" d="M219.5,392.71q-15.15-15.07-29.58-30.86c-6.54-7.14-17.12,3.49-10.61,10.61q14.43,15.78,29.58,30.86c6.85,6.82,17.46-3.78,10.61-10.61Z" transform="translate(-71.78 -75.02)"/></g><g class="cls-1"><path class="cls-5" d="M191.33,362.77c-1.44-9.54-4.68-18.59-7-27.94a68.7,68.7,0,0,1-1.08-27.54c1.6-10,4.54-19.78,7.6-29.36,2.74-8.58,7.72-13.88,14.18-19.93a102,102,0,0,1,21.74-15.94c4-2.17,8-4.95,12.32-6.37s9-1.76,13.47-2.38c19.72-2.76,39.33-3.23,58,4.71,3.76,1.6,8,1.09,10.26-2.69,1.88-3.13,1-8.68-2.69-10.26a107.94,107.94,0,0,0-51.26-8.38c-8.87.68-17.83,1.83-26.6,3.37-8.13,1.42-14.71,5.64-21.87,9.47a101.6,101.6,0,0,0-20.13,14.31c-5.78,5.2-11.86,10.49-16.16,17-4.44,6.74-6.4,15.06-8.62,22.73A162.59,162.59,0,0,0,167.9,310a80.91,80.91,0,0,0,2,28.78c2.28,9.34,5.5,18.4,7,27.93.6,4,5.65,6.24,9.22,5.24,4.29-1.2,5.85-5.19,5.24-9.22Z" transform="translate(-71.78 -75.02)"/></g><g class="cls-1"><path class="cls-5" d="M208.33,227.51,197,214.84c-2.69-3-7.85-2.75-10.6,0a7.62,7.62,0,0,0,0,10.6l11.31,12.68c2.7,3,7.86,2.75,10.61,0a7.64,7.64,0,0,0,0-10.61Z" transform="translate(-71.78 -75.02)"/></g><g class="cls-1"><path class="cls-5" d="M276.21,207.64v-3.21a7.73,7.73,0,0,0-2.19-5.3,7.5,7.5,0,0,0-10.61,0,7.77,7.77,0,0,0-2.2,5.3v3.21a7.74,7.74,0,0,0,2.2,5.31A7.52,7.52,0,0,0,274,213a7.84,7.84,0,0,0,2.19-5.31Z" transform="translate(-71.78 -75.02)"/></g><g class="cls-1"><path class="cls-5" d="M241.2,186.91a15.5,15.5,0,0,0,8.32,4.62l2-14.73a11.59,11.59,0,0,0-10.83,6.14c-4.85,8.5,7.53,15.43,13,7.57l2.2-3.18q2.46-3.26-.58.09h-4c7,1,13.78,2.6,20.86,2.63a59.34,59.34,0,0,0,9.22-.78c1.76-.27,3.47-.63,5.19-1.07l1.7-.48q4.38-.76-3.9-3.46v-4c-.17,1-.16,1.83-1,2.23l3.78-1c-5,.63-10.56-.32-15.59-.57L254,180.05c-9.65-.48-9.63,14.52,0,15l16.61.81c5.27.26,10.85,1,16.1.68,9.19-.63,17.13-14.61,9.09-21.53-3.67-3.16-8-2.63-12.35-1.52a46.76,46.76,0,0,1-15.18,1.4c-5.31-.36-11.7-3-17-1.93s-7.72,5.84-10.59,10l13,7.57-2.13,1.29c8.3.29,10.4-13.12,2-14.73-.91.21-1.47,0-1.69-.77-6.74-6.94-17.34,3.68-10.61,10.61Z" transform="translate(-71.78 -75.02)"/></g><g class="cls-1"><path class="cls-5" d="M341.63,214.82a27.2,27.2,0,0,0-10.31,12.79c-1.22,2.91.79,7.07,3.44,8.47a7.79,7.79,0,0,0,9.09-1.17,41.61,41.61,0,0,0,8.56-10.28c3-5.46.45-14.52-7.07-13.9-3.9.32-7.69,3.22-7.5,7.5.17,3.79,3.31,7.85,7.5,7.5l.37,0-3.78-1,.28.14-2.69-2.69a5.1,5.1,0,0,1-.06-5.07c-.27.44-.54.86-.83,1.29s-.58.84-.88,1.25c.4-.5.32-.4-.25.3a45.27,45.27,0,0,1-4.25,4.4l12.53,7.3c-.58,1.39.29-.39.45-.66s.48-.78.75-1.15c-.42.51-.46.57-.12.16a18,18,0,0,1,1.43-1.47,10.1,10.1,0,0,1,.77-.68q-.92.72.15,0c3.26-2.16,5-6.72,2.69-10.26-2.1-3.25-6.77-5-10.27-2.69Z" transform="translate(-71.78 -75.02)"/></g><g class="cls-1"><path class="cls-6" d="M207,370.4c6.11-7.42,3.68-15.48-2-22.26s-7.24-15.14-8.18-23.89c-1-9.18-.68-18.53,2.83-27.18s9.17-16.44,14.49-23.93c4.91-6.91,10.61-13.61,18.05-17.88,7.7-4.41,17-7.11,25.51-9.38a55.76,55.76,0,0,1,27.52-.6,71.14,71.14,0,0,1,12.93,4.32c2.11.94,4.18,2,6.2,3.12,1,.55,2,1.13,3,1.73,1.79,1.35,2,1.21.49-.43v-4l.91-1.67c-7.31,6.33,3.34,16.9,10.61,10.61A9.47,9.47,0,0,0,322,249c-1.46-4.35-5.66-6.69-9.43-8.81A90.8,90.8,0,0,0,290,231c-17.71-4.38-33.89-.87-50.74,5-8.07,2.83-15.56,6.14-22.24,11.56-6.23,5.06-11.26,11.43-15.88,17.95-10.07,14.19-18.93,28.75-19.77,46.57a98.52,98.52,0,0,0,3.22,28.95,38.2,38.2,0,0,0,5.25,12.15c1.22,1.76,2.66,3.31,4,5a14.19,14.19,0,0,1,1.12,1.32c1.46,2.28.16,1.79,1.4.28-2.59,3.15-3,7.51,0,10.6,2.63,2.69,8,3.12,10.61,0Z" transform="translate(-71.78 -75.02)"/></g><g class="cls-1"><path class="cls-6" d="M261.4,240.43A342.44,342.44,0,0,0,228,255.8c-5,2.68-10.37,5.3-15,8.61-4.94,3.52-6.45,8.09-8,13.7-1.53,5.39-4.14,10.37-6.29,15.53a60.44,60.44,0,0,0-4.38,17.41c-1.22,11.75-1.32,25.92,2.74,37.13,3.26,9,17.76,5.12,14.47-4-3.39-9.36-3.06-20.56-2.45-30.39.66-10.42,5.9-18.9,9.34-28.51,1.24-3.45,1.14-7.36,4.42-9.36,4.44-2.71,9-5.2,13.63-7.62a305.46,305.46,0,0,1,29-13.42c3.74-1.5,6.42-5,5.24-9.23-1-3.57-5.43-6.75-9.23-5.24Z" transform="translate(-71.78 -75.02)"/></g><g class="cls-1"><path class="cls-6" d="M253.19,256.31q-.57,12.82-1.83,25.61h15c-.58-5.9.07-14.33-3-19.57-3.34-5.67-9.74-5.49-15.47-4.86a110.82,110.82,0,0,0-38.3,11.29c-5.27,2.68-10.61,6.56-11,13-.39,6,3.42,11.9,9.76,12.39s11.29-4,15.91-7.62a107.39,107.39,0,0,0,14.67-13.93l-11.78-9.09-8.43,16.83c-2.74,5.46.73,10.62,6.47,11.29,5.13.59,8.92-2,13-4.68.76-.48,7.08-4.54,7.83-2.52l5.24-9.22a168.14,168.14,0,0,0-33.42,12.37c-4.55,2.26-10.49,4.7-12,10.12-.86,3.12.24,6,.25,9.06,0,2.89-.9,5.73-1.6,8.5-3,11.69-2.27,23.47-2.1,35.42.08,5.93-.3,11.81,3.66,16.66,3.3,4.06,8.17,7.14,12.81,9.46,8.6,4.31,16.21-8.63,7.57-12.95A37.72,37.72,0,0,1,220,360c-2.54-2-2.52-2.49-2.58-5.61-.11-6.22-.21-12.46-.26-18.68a66.19,66.19,0,0,1,2-17.35,61.1,61.1,0,0,0,1.73-9c.32-3.3-.58-6.43-.34-9.69l-1,3.79c.83-1.35,6-3,7.49-3.75,3-1.44,6-2.78,9.08-4a160.25,160.25,0,0,1,19.12-6.08c3.68-.94,6.63-5.47,5.24-9.23-2.44-6.57-8.1-11.12-15.32-11.28a22.85,22.85,0,0,0-10,2.32c-2.86,1.32-7,5.49-10,5.15l6.48,11.28,8.44-16.82c3.6-7.19-5.86-15.87-11.78-9.09a107.83,107.83,0,0,1-10.11,10.17c-2.06,1.8-7.47,7.26-9.87,7l3.78,1,1.4,3.54.84-.49c.8-.08,2.11-1.14,2.84-1.51q3.45-1.77,7.07-3.2a99.28,99.28,0,0,1,14.33-4.41c2.29-.52,4.61-1,6.93-1.32,1.92-.29,5.07.08,6.78-.7l1.18,0-3.38-3.32c-.07,0,.42,4.2.47,4.71l.83,8.47c1,9.62,14.06,9.65,15,0q1.26-12.8,1.83-25.61c.43-9.65-14.57-9.63-15,0Z" transform="translate(-71.78 -75.02)"/></g><g class="cls-1"><path class="cls-6" d="M215.92,301.74A133.84,133.84,0,0,1,216,326c-.73,8-3.63,15.85-3.93,23.84-.26,6.67,2.5,13.58,8.68,16.74,6.43,3.29,13.21.75,17.3-4.7,2.45-3.27.5-8.35-2.69-10.26-3.81-2.28-7.85-.54-10.26,2.69.77-1.34,1.67-1.62,2.69-.84a2,2,0,0,1-.61-1.18,51.66,51.66,0,0,1,.51-5.89c1-4.94,2-9.82,2.68-14.83a136.58,136.58,0,0,0,.59-29.84c-.85-9.54-15.85-9.63-15,0Z" transform="translate(-71.78 -75.02)"/></g><g class="cls-1"><path class="cls-6" d="M227.7,291.86c.13,16,.37,32.23-3.47,47.85-1.66,6.74-6.21,16.76,3.58,19.69,7.59,2.28,15-4.6,14.44-12.22-.77-9.56-15.77-9.64-15,0l.6-1.39,3.78-1-.36,0,5.24,5.24-.39-1.13v4c2.23-10.07,4.92-19.56,5.83-29.92s.83-20.7.75-31.05c-.07-9.65-15.07-9.67-15,0Z" transform="translate(-71.78 -75.02)"/></g><g class="cls-1"><path class="cls-6" d="M247.55,281.63c-9.8,4.57-14.07,15-15,25.22-1,11.53.16,23.24-.7,34.83-.48,6.51,8.52,9.87,12.8,5.31a13.35,13.35,0,0,0,3.65-8.42c.48-4-3.79-7.5-7.5-7.5-4.46,0-7,3.46-7.5,7.5l-.14,1.18,1-3.79-.13.42,12.8,5.3c.68-9.27.59-18.46.5-27.74-.08-7.3.23-15.85,7.75-19.35,8.74-4.08,1.13-17-7.57-13Z" transform="translate(-71.78 -75.02)"/></g><g class="cls-1"><path class="cls-6" d="M242.69,293.77a98.09,98.09,0,0,0-4,26.3c-.11,8.51-.26,18.28,8.36,22.69s16.17-8.55,7.57-13c-2.21-1.13-.88-12.61-.69-15.21a82.71,82.71,0,0,1,3.25-16.84c2.72-9.28-11.76-13.24-14.46-4Z" transform="translate(-71.78 -75.02)"/></g><g class="cls-1"><path class="cls-6" d="M260.76,300.62a8,8,0,0,1,6.64-1.26c-1.13-.94-1.25-.91-.36.08l1.44,1.86a21.53,21.53,0,0,0,3.07,2.82,26.53,26.53,0,0,0,8.31,4.35c.89.29,4.05,1.84,1.89-.24q-1.38-2.24-.71.56a12.35,12.35,0,0,0,.68,3.46c2.62,9.27,17.1,5.33,14.46-4-.74-2.62-.49-5.31-1.9-7.78a12.65,12.65,0,0,0-6.42-5.2c-4.23-1.73-6.73-2.24-9.72-5.89-7.16-8.73-20.33-5.44-28,.62-3.21,2.53-2.6,7.95,0,10.61,3.1,3.17,7.44,2.5,10.6,0Z" transform="translate(-71.78 -75.02)"/></g><g class="cls-1"><path class="cls-6" d="M264,289.87a17,17,0,0,0-15,8.07,7.56,7.56,0,0,0,2.69,10.26,7.67,7.67,0,0,0,10.26-2.69c.45-.67.36-.57-.28.29.22-.25.46-.49.7-.72.62-.52.51-.44-.32.25.29-.18.58-.35.88-.51q-1.54.6-.39.18c.32-.1.65-.18,1-.25-1.17.12-1.33.15-.49.09a8.58,8.58,0,0,1,1,0c3.92.24,7.67-3.62,7.5-7.5a7.68,7.68,0,0,0-7.5-7.5Z" transform="translate(-71.78 -75.02)"/></g><g class="cls-1"><path class="cls-6" d="M285,319.14c1.08,5.4.48,10.17,6.42,13s14.38,2.59,20.84,3.18c11.95,1.08,26.43,3,36.5-5.05A17,17,0,0,0,355.12,314c-1-6.74-2.62-13.51-3.9-20.21-2.3-12.09-6.77-23.08-16.92-30.57-3.28-2.43-8.34-.52-10.26,2.69-2.27,3.78-.55,7.87,2.69,10.26,6.11,4.51,8.23,12.73,9.67,19.75.89,4.31,1.48,8.68,2.36,13,.67,3.25,3.26,7.81,0,10.12-5.71,4.07-16.17,2.08-22.61,1.59-4.59-.35-9.18-.8-13.74-1.4-1.3-.17-2.59-.35-3.87-.55q1.38,4.14,1.47,2.16c.69-1.12-.37-4.53-.6-5.68-1.9-9.46-16.36-5.46-14.46,4Z" transform="translate(-71.78 -75.02)"/></g><g class="cls-1"><path class="cls-6" d="M258.44,346.93c4.58-4.33,11.31-2.23,17-3.74,9.32-2.48,5.37-16.95-4-14.46-4.12,1.09-8.55.13-12.75,1.27a25.49,25.49,0,0,0-10.84,6.33c-7,6.64,3.59,17.24,10.61,10.6Z" transform="translate(-71.78 -75.02)"/></g><g class="cls-1"><path class="cls-6" d="M247,334.16a29.89,29.89,0,0,0,17.15,8.91c4,.55,8.05-1,9.23-5.24,1-3.49-1.2-8.67-5.24-9.22a16.5,16.5,0,0,1-10.54-5.06c-6.74-6.93-17.34,3.68-10.6,10.61Z" transform="translate(-71.78 -75.02)"/></g><g class="cls-1"><path class="cls-6" d="M283,325c-7.47,10-17.88,12.45-29.52,14.17-12.3,1.82-24.43,11.74-29.22,23.17-2.28,5.43-3.48,11.85-2.06,17.66,1.64,6.77,6.51,9.53,12.4,12.18s11.61,5.8,17.81,7.18c6.77,1.52,13.91,1.91,20.8,2.73,4,.48,7.5-3.79,7.5-7.5,0-4.46-3.46-7-7.5-7.5-5.31-.64-10.77-1-16-2-5-1-9.54-3.37-14.16-5.45-1.38-.62-5.87-2.13-6.41-3-.34-.54.08-3.76.29-4.87,1-5.14,4.11-8.89,8-12.17,4.07-3.44,7.76-5.33,13.06-6,5.09-.62,10-1.28,14.81-3.14A51.91,51.91,0,0,0,296,332.59c2.44-3.27.5-8.34-2.69-10.26-3.81-2.28-7.86-.54-10.27,2.69Z" transform="translate(-71.78 -75.02)"/></g><g class="cls-1"><path class="cls-6" d="M233.74,374.63a216.58,216.58,0,0,0,25.63,9.76c9.24,2.85,13.2-11.63,4-14.46a190.22,190.22,0,0,1-22-8.25c-3.69-1.67-8.07-1.06-10.26,2.69-1.88,3.21-1,8.58,2.69,10.26Z" transform="translate(-71.78 -75.02)"/></g><g class="cls-1"><path class="cls-6" d="M228.25,374.39c.54,7.68,7.39,9.59,13.67,11.89a115.1,115.1,0,0,0,20.81,5.39c3.61.59,8.58-.91,9.23-5.24.69-4.66.27-8.69-2.62-12.59a17.64,17.64,0,0,0-4.38-4.15,15,15,0,0,0-2.78-1.59q-2.93-1.71.09,1.12v4q-2.13,3.38.15.23.54-1.26,1.05-2.52a8,8,0,0,0-1-6.3c-1.19-1.87-2.95-2.88-4.76-4l-3.13-1.92q-3.3-2.44.09,1.33v4c1.15-6-.93-10.51-6.37-13.39l-3.79,14,10-.75c8.17-.61,10.5-12.32,2-14.73l-5.14-1.46v14.47c5.57-.84,11.16-1.49,16.76-2,3.37-.32,6.27-2.12,7.24-5.51.83-2.91-.47-7.19-3.45-8.47a18.08,18.08,0,0,0-4.37-1.5l-2,14.73,7,0v-15a66.16,66.16,0,0,0-16.7,4.05c-7.78,3.11-6.79,14.08,2,14.73l11.78.88-3.79-14a41.46,41.46,0,0,1-6.88,2.21c-8.32,2-6.39,14.62,2,14.73l8.83.12-2-14.73-12.63,1.89c-7.14,1.07-7.19,13.44,0,14.47L270,370.82l-1.79-13.7-2.31,1.31c-5.58,3.18-4.43,12.07,1.79,13.71a80.46,80.46,0,0,0,11.12,2v-15a35.44,35.44,0,0,0-13.38,2.74c-6.55,2.8-3.51,11.75,1.79,13.71a63.75,63.75,0,0,0,13.1,3.33V364.46l-4.81,1.44c-8.69,2.6-6,13.66,2,14.73l1.64.22v-15a71.07,71.07,0,0,0-10.78,1.35c-7.1,1.42-7.22,13.11,0,14.46,8.38,1.56,22.15,4.4,29.07-2.14,6.38-6,9-16.74,9.62-25.19.28-4.05.36-8.94-2.62-12.11-3.26-3.46-8.11-3.38-12.37-2.3-9.11,2.32-16.68,8.35-23.79,14.2l10.61,10.6a178.75,178.75,0,0,1,12.7-13.41c1.86-1.76,3.75-4,6.09-5.07,2.76-1.3,6.09-1.34,9-2.47,6-2.36,7.49-9.95,1.79-13.71-8.79-5.79-19.33.36-25.49,7.15-6.57,7.23-10.29,16.21-13.88,25.15-2.18,5.45,4.18,10.69,9.23,9.23A167.68,167.68,0,0,0,307.46,360l-10.27-10.26c-1.93,3.28-5.92,4.39-9.36,5.53L293.61,369q10.8-6.79,21.19-14.19c7.8-5.55.32-18.57-7.57-12.95Q296.84,349.26,286,356c-6.93,4.36-2.59,16.49,5.78,13.71,7.36-2.44,14.23-5.47,18.33-12.42,4-6.75-3.79-13.54-10.26-10.26a147.28,147.28,0,0,1-25.63,10.06l9.23,9.22A83.29,83.29,0,0,1,291,351c1.48-2.23,7.39-9.58,9.78-8l1.79-13.71c-3.23,1.27-6.71,1.52-9.94,2.77-3.55,1.36-6.35,3.7-9.14,6.23a175.45,175.45,0,0,0-15.28,15.81c-6.35,7.4,3.17,16.72,10.61,10.6a80.59,80.59,0,0,1,8.83-6.54,37.89,37.89,0,0,1,4.19-2.32c1.18-.55,4.66-.95,3.45-1.86l-3.45-4.48c1.57,3.86-1,12.14-3.12,16.32-1.69,3.3-1.45,2.42-5.22,2.42a62.15,62.15,0,0,1-11.22-1.06v14.46a44.44,44.44,0,0,1,6.8-.81c9.93-.45,9.32-13.75,0-15l-1.64-.22,2,14.73,4.81-1.44c6.48-1.94,7.77-13.34,0-14.46a63,63,0,0,1-13.1-3.34L273,374.83c1.76-.75,3.95-.63,5.81-.69,9.88-.35,9.39-13.9,0-15a51,51,0,0,1-7.13-1.47l1.79,13.71,2.31-1.31c5.11-2.92,4.84-12.77-1.79-13.71l-14.87-2.12v14.47l12.63-1.89c8.56-1.29,6.2-14.63-2-14.74l-8.83-.12,2,14.74A62.72,62.72,0,0,0,273.37,363c7.42-3.3,2.83-13.49-3.78-14l-11.78-.88,2,14.73a51.48,51.48,0,0,1,12.71-3.51c4-.5,7.5-3.09,7.5-7.5a7.59,7.59,0,0,0-7.5-7.5l-7,0c-8.15,0-10.59,13.36-2,14.73h.79l3.78-14c-6.94.65-13.85,1.51-20.75,2.54-7.67,1.15-6.59,12.6,0,14.47l5.14,1.45,2-14.73-10,.75c-6.92.52-10.83,10.25-3.78,14q2.58,1.6-.27-.87v-4c-.75,3.9-.39,7.38,2.63,10.22a25.31,25.31,0,0,0,3.92,2.71l3.13,1.92q3.34,2.26-.35-.84l-.76-5.78c2.11-5.09-.94,1.19-1.21,2.29a9.94,9.94,0,0,0,.94,6.77,11.67,11.67,0,0,0,4.48,4.42c.38.22,4.28,2,4.27,2l9.23-5.24a116.89,116.89,0,0,1-14-3.14c-2.91-.85-9.69-2-11.62-4.16l2.2,5.3-.06-.81c-.67-9.58-15.67-9.65-15,0Z" transform="translate(-71.78 -75.02)"/></g><g class="cls-1"><path class="cls-6" d="M309.51,335.85c-1.38,5.91,2.1,11.84,8.48,12.31,5.68.42,11.85-2.71,17.19-4.44,5-1.64,11.64-2.68,16.06-5.6,5.14-3.41,3.75-8.76,2.76-13.85-1.12-5.69-8.76-7-12.54-3.31-6.64,6.53-3.42,15.2-7.71,22.49-4.48,7.62-8.75,16.17-14.53,22.88-10.37,12-26.27,17.34-40.85,22.25-9.1,3.06-5.2,17.55,4,14.46,16.16-5.44,33.13-11.47,45.39-23.87,6.59-6.66,11.05-15.09,15.86-23,2.49-4.11,5.49-8.25,6.63-13,.75-3.08-.49-9.3,1.83-11.58l-12.54-3.31c.29,1.45,0,3.73.69,1.39l3.45-4.49c-3.58,2-8.57,2.82-12.48,4.09s-9.13,4.13-13.2,3.91l3.79,1,1.19.95.75,5.78.25-1.08c2.19-9.39-12.27-13.4-14.46-4Z" transform="translate(-71.78 -75.02)"/></g><g class="cls-1"><path class="cls-6" d="M304.76,385.65c-7.3.57-13,5-20.08,6.12-4,.62-6.23,5.63-5.24,9.22,1.17,4.27,5.21,5.87,9.22,5.24,5.63-.88,10.49-5.14,16.1-5.58,4-.32,7.5-3.22,7.5-7.5,0-3.81-3.44-7.82-7.5-7.5Z" transform="translate(-71.78 -75.02)"/></g><g class="cls-1"><path class="cls-6" d="M322.15,365.29c-5.2,7.55-11.72,10.44-19.77,14.36-7.19,3.5-14.83,8.35-23,8.5-9.64.18-9.67,15.18,0,15,11.13-.2,20.84-5.79,30.61-10.54,4.64-2.26,9.51-4.3,13.75-7.27,4.76-3.35,8.13-7.73,11.4-12.48,5.49-8-7.5-15.48-13-7.57Z" transform="translate(-71.78 -75.02)"/></g><g class="cls-1"><path class="cls-6" d="M327.31,339.12c-9.33,6.6-21.24,12.74-27.5,22.61-2.52,4-.13,9.94,4.48,11a27.27,27.27,0,0,0,25.21-6.63c7.15-6.55-3.42-17-10.61-10.61a93.21,93.21,0,0,1-31.06,18.38,98.32,98.32,0,0,1-17.48,4.39c-6.25,1-11.66,1-15.52,6.72-5.4,8,7.59,15.55,12.95,7.57-1.09,1.63-2.74,1.46.51,1,1.47-.22,2.95-.37,4.43-.59,3-.43,5.93-1,8.86-1.65A107.43,107.43,0,0,0,299,385.56a111.12,111.12,0,0,0,30.53-19.44l-10.61-10.61a11.47,11.47,0,0,1-10.61,2.77l4.48,11c2.23-3.51,5.9-5.74,9.23-8.1l12.89-9.13c7.82-5.53.34-18.54-7.57-12.95Z" transform="translate(-71.78 -75.02)"/></g><g class="cls-1"><path class="cls-6" d="M277.07,391.6c-11.09.2-22.59-.25-33-4.56-11.48-4.75-21-15-30.48-22.83-7.38-6.11-18,4.45-10.6,10.61,11,9.07,21.75,20.18,35,25.8,12.32,5.23,25.84,6.21,39.08,6,9.64-.17,9.67-15.18,0-15Z" transform="translate(-71.78 -75.02)"/></g><g class="cls-1"><path class="cls-6" d="M327.21,271.07c9.66,0,9.67-15,0-15s-9.66,15,0,15Z" transform="translate(-71.78 -75.02)"/></g><g class="cls-1"><path class="cls-6" d="M331.91,257.91l-.2-.23a5.6,5.6,0,0,0-2.41-1.55,6.75,6.75,0,0,0-5.78,0,5.63,5.63,0,0,0-2.42,1.55l-1.17,1.52a7.4,7.4,0,0,0-1,3.78l.27,2a7.53,7.53,0,0,0,1.92,3.31l.21.22a5.6,5.6,0,0,0,2.41,1.55,6.75,6.75,0,0,0,5.78,0,5.6,5.6,0,0,0,2.41-1.55l1.18-1.52a7.4,7.4,0,0,0,1-3.78l-.27-2a7.35,7.35,0,0,0-1.93-3.31Z" transform="translate(-71.78 -75.02)"/></g><g class="cls-1"><path class="cls-6" d="M330.86,257.09l-.16-.16a7.71,7.71,0,0,0-10.61,0l-1.17,1.52a7.51,7.51,0,0,0-1,3.78l.27,2a7.55,7.55,0,0,0,1.93,3.31l.16.16a8.28,8.28,0,0,0,5.3,2.19,5.61,5.61,0,0,0,2.89-.64,5.73,5.73,0,0,0,2.42-1.55l1.17-1.52a7.41,7.41,0,0,0,1-3.79l-.26-2a7.55,7.55,0,0,0-1.93-3.31Z" transform="translate(-71.78 -75.02)"/></g><g class="cls-1"><path class="cls-6" d="M329.36,255.86l-.11-.11a5.6,5.6,0,0,0-2.41-1.55,7.74,7.74,0,0,0-8.2,1.55l-1.17,1.52a7.4,7.4,0,0,0-1,3.78l.26,2a7.55,7.55,0,0,0,1.93,3.31l.11.1a5.51,5.51,0,0,0,2.41,1.55,6.75,6.75,0,0,0,5.78,0,5.54,5.54,0,0,0,2.42-1.55l1.17-1.51a7.43,7.43,0,0,0,1-3.79l-.26-2a7.5,7.5,0,0,0-1.93-3.31Z" transform="translate(-71.78 -75.02)"/></g><g class="cls-1"><path class="cls-6" d="M323.41,268c9.65,0,9.67-15,0-15s-9.67,15,0,15Z" transform="translate(-71.78 -75.02)"/></g><g class="cls-1"><path class="cls-6" d="M319.66,264.32c9.65,0,9.67-15,0-15s-9.67,15,0,15Z" transform="translate(-71.78 -75.02)"/></g><g class="cls-1"><path class="cls-6" d="M320.63,265.34c9.65,0,9.66-15,0-15s-9.67,15,0,15Z" transform="translate(-71.78 -75.02)"/></g><g class="cls-1"><path class="cls-6" d="M316,263.52l.06.05a5.6,5.6,0,0,0,2.41,1.55,6.75,6.75,0,0,0,5.78,0,5.54,5.54,0,0,0,2.41-1.55l1.18-1.52a7.4,7.4,0,0,0,1-3.78l-.27-2a7.46,7.46,0,0,0-1.93-3.31l-.05-.05a5.6,5.6,0,0,0-2.41-1.55,6.75,6.75,0,0,0-5.78,0,5.63,5.63,0,0,0-2.42,1.55l-1.17,1.52a7.4,7.4,0,0,0-1,3.78l.27,2a7.53,7.53,0,0,0,1.92,3.31Z" transform="translate(-71.78 -75.02)"/></g><g class="cls-1"><path class="cls-6" d="M321.75,266.2h.11a5.66,5.66,0,0,0,2.89-.65,6.75,6.75,0,0,0,4-4,5.66,5.66,0,0,0,.65-2.89l-.27-2a7.55,7.55,0,0,0-1.93-3.31l-1.52-1.17a7.4,7.4,0,0,0-3.78-1h-.11a7.72,7.72,0,0,0-7.5,7.5l.27,2a7.46,7.46,0,0,0,1.93,3.31l1.51,1.17a7.54,7.54,0,0,0,3.79,1Z" transform="translate(-71.78 -75.02)"/></g><g class="cls-1"><path class="cls-6" d="M317.09,264.32l.11.11a5.6,5.6,0,0,0,2.41,1.55,6.75,6.75,0,0,0,5.78,0,5.6,5.6,0,0,0,2.41-1.55l1.18-1.52a7.5,7.5,0,0,0,1-3.78l-.27-2a7.46,7.46,0,0,0-1.93-3.31l-.1-.11a5.73,5.73,0,0,0-2.42-1.55,6.85,6.85,0,0,0-5.78,0,5.69,5.69,0,0,0-2.41,1.55l-1.17,1.52a7.51,7.51,0,0,0-1,3.79l.27,2a7.5,7.5,0,0,0,1.93,3.31Z" transform="translate(-71.78 -75.02)"/></g><g class="cls-1"><path class="cls-6" d="M316.66,263.4l.06.1a7.2,7.2,0,0,0,7.47,3.58,5.51,5.51,0,0,0,2.79-.89l1.51-1.17a7.46,7.46,0,0,0,1.93-3.31l.27-2a7.41,7.41,0,0,0-1-3.79l-.06-.11a8.38,8.38,0,0,0-4.48-3.44,8.37,8.37,0,0,0-5.78.75l-1.52,1.18a7.5,7.5,0,0,0-1.93,3.31l-.26,2a7.43,7.43,0,0,0,1,3.79Z" transform="translate(-71.78 -75.02)"/></g><g class="cls-1"><path class="cls-6" d="M320.16,266.72l.16.11a5.51,5.51,0,0,0,2.79.89,5.73,5.73,0,0,0,3-.13,5.63,5.63,0,0,0,2.55-1.35,5.68,5.68,0,0,0,1.94-2.1l.75-1.79a7.51,7.51,0,0,0,0-4l-.75-1.79a7.57,7.57,0,0,0-2.7-2.69l-.16-.11A8.37,8.37,0,0,0,322,253a8.38,8.38,0,0,0-4.48,3.44l-.75,1.79a7.51,7.51,0,0,0,0,4l.75,1.79a7.54,7.54,0,0,0,2.69,2.69Z" transform="translate(-71.78 -75.02)"/></g><g class="cls-1"><path class="cls-6" d="M317.35,262.73l.06.16a8.38,8.38,0,0,0,3.44,4.48,5.64,5.64,0,0,0,2.79.89,5.73,5.73,0,0,0,3-.13l1.8-.76a7.62,7.62,0,0,0,2.69-2.69l.75-1.79a7.51,7.51,0,0,0,0-4l-.05-.16a7.23,7.23,0,0,0-6.24-5.37,5.64,5.64,0,0,0-3,.13l-1.79.76a7.46,7.46,0,0,0-2.69,2.69l-.76,1.79a7.71,7.71,0,0,0,0,4Z" transform="translate(-71.78 -75.02)"/></g><g class="cls-1"><path class="cls-6" d="M321.5,267.91l.15.11a5.54,5.54,0,0,0,2.79.89,5.73,5.73,0,0,0,3-.13,5.61,5.61,0,0,0,2.55-1.34,5.79,5.79,0,0,0,1.94-2.11l.75-1.79a7.51,7.51,0,0,0,0-4l-.75-1.79a7.62,7.62,0,0,0-2.69-2.69l-.16-.11a5.61,5.61,0,0,0-2.79-.89,5.73,5.73,0,0,0-3,.13,5.63,5.63,0,0,0-2.55,1.35,5.76,5.76,0,0,0-1.94,2.1l-.75,1.79a7.51,7.51,0,0,0,0,4l.75,1.79a7.49,7.49,0,0,0,2.7,2.69Z" transform="translate(-71.78 -75.02)"/></g><g class="cls-1"><path class="cls-6" d="M320,266.18l.06.11a8.38,8.38,0,0,0,4.48,3.44,8.37,8.37,0,0,0,5.78-.75l1.51-1.18a7.4,7.4,0,0,0,1.93-3.31l.27-2a7.43,7.43,0,0,0-1-3.79l-.06-.1a7.2,7.2,0,0,0-7.47-3.58,5.51,5.51,0,0,0-2.79.89l-1.52,1.17a7.53,7.53,0,0,0-1.92,3.31l-.27,2a7.41,7.41,0,0,0,1,3.79Z" transform="translate(-71.78 -75.02)"/></g><g class="cls-1"><path class="cls-6" d="M321.91,268.29l0,0a5.63,5.63,0,0,0,2.42,1.55,6.75,6.75,0,0,0,5.78,0,5.6,5.6,0,0,0,2.41-1.55l1.17-1.52a7.51,7.51,0,0,0,1-3.78l-.27-2a7.55,7.55,0,0,0-1.93-3.31l-.05-.05a7.71,7.71,0,0,0-10.61,0l-1.17,1.52a7.51,7.51,0,0,0-1,3.78l.27,2a7.55,7.55,0,0,0,1.93,3.31Z" transform="translate(-71.78 -75.02)"/></g><g class="cls-1"><path class="cls-6" d="M327.8,270.8c9.66,0,9.67-15,0-15s-9.66,15,0,15Z" transform="translate(-71.78 -75.02)"/></g><g class="cls-1"><path class="cls-6" d="M328.13,271.18c9.65,0,9.66-15,0-15s-9.67,15,0,15Z" transform="translate(-71.78 -75.02)"/></g><g class="cls-1"><path class="cls-6" d="M320.14,263.25c9.65,0,9.67-15,0-15s-9.66,15,0,15Z" transform="translate(-71.78 -75.02)"/></g><g class="cls-1"><path class="cls-6" d="M321.21,264.32c9.66,0,9.67-15,0-15s-9.66,15,0,15Z" transform="translate(-71.78 -75.02)"/></g><g class="cls-1"><path class="cls-6" d="M315.21,257.79v.1a5.71,5.71,0,0,0,.65,2.89,5.63,5.63,0,0,0,1.55,2.42,8.28,8.28,0,0,0,5.3,2.19l2-.27A7.44,7.44,0,0,0,328,263.2l1.17-1.52a7.41,7.41,0,0,0,1-3.79v-.1a7.69,7.69,0,0,0-7.5-7.5l-2,.26a7.55,7.55,0,0,0-3.31,1.93L316.24,254a7.51,7.51,0,0,0-1,3.79Z" transform="translate(-71.78 -75.02)"/></g><g class="cls-1"><path class="cls-6" d="M322.07,264.86c9.65,0,9.67-15,0-15s-9.67,15,0,15Z" transform="translate(-71.78 -75.02)"/></g><g class="cls-1"><path class="cls-6" d="M322.18,264.64c9.65,0,9.67-15,0-15s-9.67,15,0,15Z" transform="translate(-71.78 -75.02)"/></g><g class="cls-1"><path class="cls-6" d="M316.91,261.86a8.2,8.2,0,0,0,.89.6c-.11.07-1.15-1-.24-.19a23,23,0,0,1,1.73,1.69c.13.15,1,1.05.28.32s.07.18.2.38c.28.46,1.34,2.69.61.92a8.22,8.22,0,0,0,3.44,4.48,7.68,7.68,0,0,0,5.78.76c3.49-1.13,6.84-5.34,5.24-9.23a26.5,26.5,0,0,0-10.35-12.68,7.57,7.57,0,0,0-10.27,2.69,7.68,7.68,0,0,0,2.69,10.26Z" transform="translate(-71.78 -75.02)"/></g><g class="cls-1"><path class="cls-6" d="M199.78,372.78c2.88,5.28,6.76,10.2,11.87,13.46a7.57,7.57,0,0,0,10.26-2.69,7.66,7.66,0,0,0-2.69-10.26c-.42-.27-.85-.51-.21-.05a13.3,13.3,0,0,1-1.32-1.17,28,28,0,0,1-2.13-2.36c.5.61.11.16-.15-.21s-.56-.78-.83-1.19c-.67-1-1.27-2-1.85-3.1a7.5,7.5,0,0,0-12.95,7.57Z" transform="translate(-71.78 -75.02)"/></g><g class="cls-1"><path class="cls-7" d="M273.42,259a48.12,48.12,0,0,0,16.41,8.43c5.54,1.75,11.57,2.94,16.31,6.52,4.95,3.73,8.41,9.37,11.55,14.6a76.81,76.81,0,0,1,4.72,9,46.11,46.11,0,0,1,1.71,4.69c.4,1.3.46,3.62,1.2,4.7q.31,2.81,2.88-2.41l-1.17,0c-1.27-.62-4.21,0-5.74,0-2.93,0-8.25,1-11,0-4.24-1.59-5.5-10.57-7.05-14.52-4.93-12.54-15.58-21.51-29.62-20.59l7.5,7.5a61.47,61.47,0,0,1,.41-6.64c.17-1.14.38-2.28.62-3.41q1.28-3.75-1.58.45l-3.78,1c-1.07.07,1.36.75,2,1.21a13.48,13.48,0,0,1,2.7,2.58c2,2.56,2.86,5.76,4.79,8.36a18.3,18.3,0,0,0,7.95,6c.89.38,6.64,1.7,7,2.7l11-8.47a44.6,44.6,0,0,1-14.1-13.24l-10.27,10.26c6.56,2.82,11.75,8.19,12.88,15.47.67,4.33.08,8.32,3.16,11.93,2.4,2.81,6.3,4.51,9.82,5.36,8.57,2.07,17.68-2.63,18.2-12.05.51-9.05-6.62-14.71-14.09-18-3.73-1.66-8-1.06-10.26,2.69-1.91,3.18-1,8.62,2.69,10.26a65.92,65.92,0,0,1,6,3.26c1.85,1.07-.55,1.27.91.37,1.24-.77.94-.53.51-1,.07.08-3.19-.9-3-1.17.05-.1,1,3.9,1.25.56a26.08,26.08,0,0,0-1.21-8.26,34.71,34.71,0,0,0-19.27-22.37c-3.12-1.34-6.53-1.39-9.09,1.17-2.25,2.24-3,6.36-1.18,9.09a62.21,62.21,0,0,0,19.49,18.62c5.21,3.16,13.45-2.19,11-8.47-2.91-7.51-8.27-9.25-15.12-12.22-3.18-1.38-3.6-4.21-5.29-7.06a27.88,27.88,0,0,0-6.28-7.32c-4.93-4-12.87-8.15-18.27-2.51-4.6,4.79-4.5,14.67-4.63,20.83-.07,3.86,3.51,7.76,7.5,7.5,17.9-1.17,15.4,20.6,24.79,30.26,6,6.21,15,4.86,22.84,4.87,7.26,0,16.57.29,18.79-8.56,1.86-7.41-2.56-16.73-5.74-23.24a91.63,91.63,0,0,0-13.06-20c-5.15-5.88-11.52-9.6-18.85-12.14-6.06-2.1-13.29-3.08-18.41-7.24-3.16-2.57-7.5-3-10.6,0-2.67,2.61-3.14,8.06,0,10.61Z" transform="translate(-71.78 -75.02)"/></g><g class="cls-1"><path class="cls-8" d="M298.28,361.82a45.7,45.7,0,0,0,17.24-5.24c7-3.81,3.14-13.38-3.79-14-13-1.12-26-1-39-.77-9.84.16-9.41,14,0,15a242.86,242.86,0,0,0,49.34.17c4-.4,7.5-3.16,7.5-7.5,0-3.75-3.44-7.9-7.5-7.5a242.86,242.86,0,0,1-49.34-.17v15c13-.21,26-.35,39,.77l-3.78-14a26.33,26.33,0,0,1-9.67,3.19c-4,.46-7.5,3.13-7.5,7.5,0,3.71,3.45,8,7.5,7.5Z" transform="translate(-71.78 -75.02)"/></g><g class="cls-1"><path class="cls-8" d="M305.36,352.12,284.89,352l2,14.74c2.57-.48,5.13-.89,7.74-1.15,1.8-.17,4.79-.89,6.43-.25l-4.48-3.45.56.76-1-3.78q2.11-3.51-.56-1.76c-1.06.41-2.12.78-3.2,1.11-1.26.39-4.1,1.66-5.39,1.2l4.48,3.45c0,.77,0,.73-.09-.1a4.13,4.13,0,0,1,.49-1.62,3.24,3.24,0,0,1,1.53-1.78h-4l1.07.2L286,356.08c2.74,3.71.38,10.94-4.08,12.46h4q3,4.72,2.18,1.8a13.28,13.28,0,0,1-.38-2.34,25.63,25.63,0,0,1,0-4.38,29.88,29.88,0,0,1,2.32-9.05l-14.73-2a34.23,34.23,0,0,1-2.55,15h12.95c-3.21-7.11-4-15.1-4.82-22.77-1-9.54-14.25-9.75-15,0a292,292,0,0,0-.45,38.11,7.61,7.61,0,0,0,11.29,6.48c14.89-7.41,24.89-21.11,38.67-30l-10.26-10.26a247.79,247.79,0,0,1-21.42,27.25c-5.62,6.2,1.47,16.13,9.09,11.78a132.31,132.31,0,0,0,23.91-17.56c7.15-6.57-3.41-17-10.6-10.6l-13.8,12.19c-3.86,3.41-7.68,7.06-12.45,9.18-5.1,2.27-10.91,2.87-16.4,3.57-6.09.77-12.19,1.47-18.34,1.8l7.5,7.5.06-1.25-1,3.78c.66-1.32,3.75-2.28,5.27-3.07l7.49-3.83q7.49-3.83,15-7.56c8.65-4.3,1.06-17.25-7.57-12.95q-10.46,5.2-20.85,10.54c-6.43,3.3-13,6.17-13.4,14.34a7.57,7.57,0,0,0,7.5,7.5c6.76-.36,13.47-1.17,20.17-2,7-.91,13.86-1.78,20.37-4.58,11.86-5.11,21.51-16.09,31-24.53L306.05,360a114.48,114.48,0,0,1-20.88,15.2L294.25,387A273.47,273.47,0,0,0,318,356.7c4.21-6.21-4.09-14.26-10.26-10.26-13.75,8.9-23.9,22.68-38.67,30l11.28,6.48a292,292,0,0,1,.45-38.11h-15c1.09,10.52,2.48,20.62,6.87,30.34,2.2,4.85,10.8,5,12.95,0a51.33,51.33,0,0,0,4.6-22.6c-.3-8.89-11.67-9.62-14.73-2-3.12,7.78-5,20.06-.51,27.76,5.05,8.55,15.49,4.15,20.7-1.69a25.22,25.22,0,0,0,6.06-20.43c-1.38-8.94-8.46-14.84-17-9.16-6.32,4.23-10.23,13.24-7.68,20.69,3.4,9.89,15.09,6.57,22.42,3.78,6.74-2.56,15.54-9.21,10-17.25-5.22-7.53-19.21-3.42-26.63-2-8.48,1.57-6.26,14.67,2,14.73l20.47.16c9.65.07,9.66-14.93,0-15Z" transform="translate(-71.78 -75.02)"/></g><g class="cls-1"><path class="cls-8" d="M317.51,354c-.24,3.59-2.24,7-2.94,10.49-.64,3.2-.21,7.58-2,10.35l4.48-3.45c-3,.84-5.86,1-8.95,2.8-3.57,2.12-7,4.54-10.48,6.8-8.07,5.25-.56,18.24,7.57,12.95,3.6-2.34,7.81-6.27,11.9-7.61,1.94-.64,3.8-.06,5.74-1.23a10.67,10.67,0,0,0,4.13-5.52c1.6-4,1.39-8.5,2.45-12.68,1.12-4.43,2.82-8.27,3.13-12.9.66-9.64-14.35-9.6-15,0Z" transform="translate(-71.78 -75.02)"/></g><g class="cls-1"><path class="cls-8" d="M313.74,367.53c-4.49,3.69-9,7.37-13.26,11.33-3.74,3.49-6.41,7.31-11.49,8.67-11.16,3-23,2-34.41,1.07-9.62-.82-9.56,14.18,0,15,13.13,1.11,27.06,1.95,39.83-2,6.29-2,10.1-5.77,14.68-10.24,4.83-4.69,10.05-9,15.26-13.22,3.16-2.59,2.63-7.92,0-10.61-3.07-3.13-7.49-2.55-10.61,0Z" transform="translate(-71.78 -75.02)"/></g><g class="cls-1"><path class="cls-8" d="M300.62,401.75a48.53,48.53,0,0,0,17.67-10.18c4.75-4.17,8.36-9,12.67-13.53,4.65-4.88,9.57-9,13.12-14.84,3.82-6.36,2-13.18,4.43-19.71,1.32-3.53-1.5-8.59-5.24-9.22-8-1.35-15.51,2.5-23.34,3.75-7.13,1.14-7.21,13.4,0,14.47a24.17,24.17,0,0,0,16.89-3.42c4.73-2.89,8.55-6.89,13.67-9.16l-10.26-10.26a20.83,20.83,0,0,0-2.53,15.59c1.85,9.46,16.31,5.46,14.46-4a5.15,5.15,0,0,1,1-4c4.29-7-3.91-13.07-10.26-10.26-3.76,1.66-6.83,4.15-10.07,6.63-2.28,1.74-5.8,4.89-8.94,4.43v14.47a76.42,76.42,0,0,0,8.37-1.65c2-.55,5-2.45,7-2.11L334,339.5c-1.93,5.16-.22,11.41-2.91,16.13s-7,7.91-10.78,11.8C313,375,307.25,384,296.63,387.28c-9.18,2.88-5.26,17.37,4,14.47Z" transform="translate(-71.78 -75.02)"/></g><g class="cls-1"><path class="cls-8" d="M355.62,327.27c.7-10.07-.43-20.32-1-30.39-.5-9.6-15.51-9.66-15,0,.53,10.07,1.66,20.32,1,30.39-.68,9.63,14.32,9.59,15,0Z" transform="translate(-71.78 -75.02)"/></g><g class="cls-1"><path class="cls-8" d="M343.92,319.32A105.9,105.9,0,0,0,321.29,322c-8,1.7-14.44,1-22.26-1l-2,14.73,15.51.22c9.67.15,9.64-14.69,0-15L297,320.42c-3.74-.12-7.59-.59-11.21.57a45.14,45.14,0,0,0-10.07,5,11.79,11.79,0,0,0-4.14,4.42c-.07.14-2.3,5.05-.75,3.41-3.59,3.82-2.49,11.42,3.31,12.53,8.14,1.56,15.58-.85,23.67-1.38s16,0,24-.15v-15A95.27,95.27,0,0,0,303,332.51c-8.24,2.28-6.44,14.5,2,14.73l14.92.4-5.31-12.8c-5.66,4.86-13,7-19.94,9.44-7.65,2.74-14.73,5.89-21.08,11-3.17,2.57-2.62,7.93,0,10.61,3.08,3.14,7.48,2.54,10.61,0,5.78-4.69,13.28-6.72,20.15-9.2,7.62-2.76,14.68-6,20.87-11.29,5.17-4.43.78-12.64-5.3-12.8l-14.92-.4L307,347a74.58,74.58,0,0,1,14.8-2.18c9.52-.67,9.76-15.13,0-15-7.36.1-14.73-.3-22.09,0a101.48,101.48,0,0,0-10.57,1.09c-3.63.57-7.33,1.65-11,.94l3.31,12.53c2.19-2.33,2.25-4.52,3.53-7.17-1.08,2.24,1.3.13,2.47-.46-.09,0,3.95-1.88,2.59-1.54,3-.76,7.72.22,10.86.32l11.66.36v-15L297,320.68c-8.42-.13-10.24,12.61-2,14.73s16.09,3.45,24.61,2.1c8.21-1.3,15.88-3.22,24.27-3.19,9.65,0,9.67-15,0-15Z" transform="translate(-71.78 -75.02)"/></g><g class="cls-1"><path class="cls-8" d="M269.35,334.27c-5.7-.31-13,1-16.05,6.52-3.78,6.81,3.49,11.36,2.7,17.85-.33,2.72-1.76,5.23-2.06,8a23.22,23.22,0,0,0,1.37,10.17c2.06,5.89,6.41,8.61,12.59,8.67,9.66.1,9.66-14.9,0-15q-2.67-.39.33,1.16c1.46,1.58,1.88,1.7,1.29.37.19-1.1-.87-2.55-.78-3.82.18-2.34,1.61-4.77,2-7.13,1.17-6.68-1.69-11.45-4-17.42v4q-3,2.42-.58,1.63a12.15,12.15,0,0,1,3.13,0c9.65.52,9.62-14.48,0-15Z" transform="translate(-71.78 -75.02)"/></g><g class="cls-1"><path class="cls-8" d="M251,388.25c-3.55-.64-6.87-3-10-4.74-3.52-1.94-7-3.93-10.4-6.08a84.59,84.59,0,0,1-18.4-15.61c-6.41-7.24-17,3.4-10.61,10.61a99.54,99.54,0,0,0,21.44,18c3.92,2.47,8,4.74,12,7,3.78,2.06,7.66,4.59,12,5.36,9.44,1.71,13.48-12.74,4-14.46Z" transform="translate(-71.78 -75.02)"/></g><g class="cls-1"><path class="cls-8" d="M204,371.53c7.84,7.32,18.71,10.2,29.12,11.47,12,1.48,20.49-3.69,27.69-12.94L249.06,361c-1.66,3.33-4,6-6.17,9a28.29,28.29,0,0,0-2.41,4c-.44,1-.87,2-1.3,3-.62,1-.37,1,.75.26l3.79,1c-1.87-.93-1.21-2.18-2.33.91s-.71,1.69,1.25,1.83a22.54,22.54,0,0,0,8.83-1.78,15.69,15.69,0,0,0,9.85-11c2.21-9.38-12.25-13.39-14.46-4-.54,2.29-7,2-8.81,2.27a13.36,13.36,0,0,0-8.14,4.15c-5.31,6.06-2,14.39,3.63,18.82,6.35,5,14.41,2.65,18.27-4.22,1.45-2.59,2.28-5.3,4-7.76,2.14-3,4.52-5.64,6.17-9a7.59,7.59,0,0,0-1.93-9.67c-2.66-2.05-7.55-2.37-9.85.59-4.8,6.16-8.56,9.84-16.81,8.53-6.4-1-13.91-2.52-18.78-7.06-7-6.59-17.68,4-10.61,10.6Z" transform="translate(-71.78 -75.02)"/></g><g class="cls-1"><path class="cls-8" d="M254,347.84c-2.6,2.6-5.82,6.43-9.76,6.77l5.3,12.81a78.26,78.26,0,0,1,9.17-8.57l-10.61-10.6c-2.64,2.78-6.61,4.15-10.23,5.22-3.9,1.15-7.31-.45-11.14.37-9.16,2-8.87,13.83-.93,17.35,8.67,3.84,15.91-7.67,7.57-12.95-5.32-3.37-11.82-9.31-18.18-10.3-6.9-1.08-10,4-14,8.42h10.61c-1.17-1.14-5.15-4.59-7-4-1.25-.56-1.06,0,.55,1.8v-1.3a13.89,13.89,0,0,0-.15-4.12c-.63-5.86-3.48-11.34-4.81-17.07a45.59,45.59,0,0,1-.93-17.56c.24-1.42.52-5,1.48-6.07.72-.81,3.16-1.22,4.08-1.44l1.67-.36c2.61,0,2.14-1-1.4-3.15v-4c.28-1.24-4.67,1.54-5.31,1.86a20,20,0,0,0-5.45,3.42,10.09,10.09,0,0,0-2.32,11.32,10.79,10.79,0,0,0,9.54,6.07c4.26.18,6.4-2.36,10-3.75l-7.29-12.53A30.26,30.26,0,0,0,196,326.81l14.73-2L209,319.25c-2.43-7.72-15.35-6.81-14.73,2a97.33,97.33,0,0,1,.1,12.78c-.28,4.48-1.1,8.78.27,13.17,2.37,7.58,11.4,12.13,17.85,15.75a7.59,7.59,0,0,0,11-4.48c1.74-5.76-1.47-11.74-3.27-17.12-1.91-5.69-4.05-11.93-3.21-18l-13.7,1.8c7.06,9.65,7.72,22.52,12.44,33.34,3.49,8,15.73,2.19,13.71-5.78-2.82-11.12-6.1-22.3-7.6-33.7l-11.28,6.47c2.42,1.78,4.16,5.93,5.72,8.48,1.81,3,3.58,6,5.46,8.9,3.92,6.09,8.32,11.92,13.91,16.58,3.8,3.16,11.62,2.82,12.54-3.31,1.7-11.34-4.26-19.22-12.62-26.13-3.69-3-9.14-2.95-11.78,1.51-4.14,7-1.29,17.4,1,24.66,2.37,7.43,6.81,14.84,15.16,16.25,5.77,1,10.44-3.29,9.22-9.23-2.3-11.23-10.33-19.32-16.21-28.73l-8.47,11c7.8,1.94,13.71,8.09,21.51,10.25a21.11,21.11,0,0,0,19.79-4.18c3.12-2.59,2.65-7.94,0-10.61-4.7-4.7-10.64-6.88-16.93-8.6l-2,14.73,31.07-.95c9.63-.3,9.67-15.3,0-15l-31.07.95c-8.33.25-10.33,12.45-2,14.73,3.75,1,7.49,1.92,10.31,4.75V340.89c-3.12,2.59-8.78-1.08-11.41-2.63-4.94-2.92-9.66-5.89-15.29-7.29-6.14-1.53-12,5.3-8.47,11,5.12,8.19,12.7,15.41,14.7,25.15l9.23-9.23c-3.59-.6-4.3-4.34-5.18-7.45-.63-2.21-3.25-9.38-2-11.42L225,340.56c3,2.51,9.47,6.86,8.76,11.54l12.54-3.31c-6-5-10.1-11.06-14.11-17.63s-7.65-14-14-18.67c-4.31-3.15-12,1-11.29,6.48,1.68,12.8,5,25.2,8.14,37.69l13.71-5.78c-4.81-11-5.14-23.36-12.45-33.34-3.26-4.46-12.73-5.34-13.71,1.79a48,48,0,0,0,1.08,19c.76,3,1.73,5.84,2.71,8.73.5,1.44,1,2.89,1.49,4.34.22.64.91,4,1.19,3.06L220,350c-2.45-1.38-4.87-2.82-7.2-4.38-2.48-1.66-4.17-2.27-4-5.39.3-6.39.88-12.56.44-19l-14.74,2,1.76,5.57c2.49,7.91,14.78,6.7,14.73-2A14.78,14.78,0,0,1,215,316.09c4.69-5,.14-15.4-7.3-12.54a29.17,29.17,0,0,0-4.15,1.88l-1.11.73q-4,1.83,3.54,3.67v4q-2.48,2.29-.77,1.24c.74-.42,1.51-.8,2.29-1.15,1.42-.7,2.86-1.36,4.28-2.07,2.76-1.38,5.4-3.08,6.92-5.88a10,10,0,0,0-4.44-13.72c-5.39-2.55-12.63-.72-17.89,1.42-5.65,2.32-8.69,6.5-10.41,12.26-3.55,11.85-2,24.9,1.82,36.49.83,2.53,2.2,5.18,2.54,7.85.3,2.38-.15,4.74.4,7.14a11.82,11.82,0,0,0,3.85,6.3c1.76,1.5,5.63,2.35,6.57,3.28,2.79,2.74,7.86,3,10.61,0,.83-.91,2.52-2.3,2.82-3.55,1.47-1.6.77-1.81-2.12-.65l2.49,1.58,10.8,6.84,7.57-12.95q-2.22-1.2.24.77l1,3.78.07-.91-2.2,5.3q-6.12,1.29-2.82,1.63c.63.13,1.27.23,1.91.3a20.57,20.57,0,0,0,4.64,0,36.59,36.59,0,0,0,9.18-2.42c4.94-1.87,9.6-3.92,13.3-7.82,6.81-7.17-3.21-16.48-10.61-10.6a78.12,78.12,0,0,0-9.17,8.56c-4,4.39-1.58,13.4,5.31,12.8,8.52-.74,14.48-5.28,20.37-11.16,6.83-6.84-3.77-17.44-10.61-10.61Z" transform="translate(-71.78 -75.02)"/></g><g class="cls-1"><path class="cls-8" d="M284.65,345.63a56.28,56.28,0,0,0,16.4-6.34,7.47,7.47,0,0,0,3.58-7.47c-.39-2.63-2.45-5.83-5.37-6.24-5.26-.74-10.52.25-14.08,4.56-2.58,3.12-3.06,7.55,0,10.61,2.65,2.65,8,3.13,10.6,0,.61-.74.41-.57-.51-.7l-1.79-13.71a43,43,0,0,1-12.82,4.83c-4,.84-6.27,5.49-5.24,9.23,1.13,4.1,5.25,6.08,9.23,5.23Z" transform="translate(-71.78 -75.02)"/></g><g class="cls-1"><path class="cls-8" d="M286.18,343.63c5.95-.94,11.33-4.23,13.66-9.95s.74-11.81-.37-17.53c-1.24-6.37-2.4-12.31-7-17.17-4.22-4.48-9.41-8.62-15.4-10.33a38.14,38.14,0,0,0-18.51-.09c-5.53,1.35-8.82,5.94-11.7,10.48-1.55,2.45-1.75,5.21-2.9,7.75-1.25,2.74-2.62,5.1-3.16,8.11-1.22,6.81.46,13.37,2.56,19.82,3,9.15,17.45,5.24,14.46-4-1.18-3.64-2.76-7.65-2.5-11.54.19-2.87,1.79-4.82,2.89-7.39,1.39-3.22,1.78-6.43,4.5-9-1.08,1,.26.11,1.52-.05a29.94,29.94,0,0,1,5.91-.17,16,16,0,0,1,13.61,11.69,97.74,97.74,0,0,1,2.14,10.88c.4,3.61-.1,3.41-3.72,4-4,.63-6.24,5.63-5.24,9.22,1.2,4.26,5.19,5.88,9.23,5.24Z" transform="translate(-71.78 -75.02)"/></g><g class="cls-1"><path class="cls-8" d="M258.76,333.3c-6.9-2.18-11.55-8.46-16.28-13.56a120.26,120.26,0,0,0-20.08-17.19c-8-5.48-15.48,7.51-7.57,12.95,7.57,5.21,13.89,11.47,20.1,18.2,5.67,6.14,11.73,11.51,19.84,14.06,9.23,2.91,13.18-11.57,4-14.46Z" transform="translate(-71.78 -75.02)"/></g><g class="cls-1"><path class="cls-8" d="M219,316.22a42.16,42.16,0,0,0,9.44,2c1,.14,2.09.26,3.12.42.85.13,1.7.28,2.53.47,1.31.33,1.35.36.12.07l-1.93-3.31a1.07,1.07,0,0,1-.06,1.23l12.81-5.3-6.49-8c-2.56-3.14-7.94-2.66-10.6,0-3.11,3.11-2.57,7.46,0,10.61l6.48,8c1.85,2.27,5.71,2.64,8.19,1.55,3-1.3,4.24-3.74,4.61-6.86,1.71-14.38-15.41-12.11-24.24-15.37-3.8-1.41-8.21,1.57-9.22,5.24-1.15,4.19,1.42,7.81,5.24,9.22Z" transform="translate(-71.78 -75.02)"/></g><g class="cls-1"><path class="cls-8" d="M217.08,305.94c6.89,3.19,14,4.77,21.46,5.84,7.29,1.05,14.4-.34,16.81-8.25,2.81-9.26-11.66-13.21-14.47-4q4-2.18,1.65-2.22l-1.68-.26c-2-.3-3.94-.62-5.89-1A45.64,45.64,0,0,1,224.65,293c-8.7-4-16.32,8.88-7.57,12.95Z" transform="translate(-71.78 -75.02)"/></g><g class="cls-1"><path class="cls-8" d="M223.61,302.23c4.65-.74,9.33-1.73,14-2.19,4.36-.43,8.72.5,13.09.4,9.64-.2,9.68-15.2,0-15-5.09.11-10-.83-15.09-.18-5.35.69-10.68,1.66-16,2.51-4,.64-6.24,5.63-5.24,9.23,1.19,4.25,5.2,5.88,9.23,5.23Z" transform="translate(-71.78 -75.02)"/></g><g class="cls-1"><path class="cls-8" d="M191.89,308.76c11.61-4.53,10.09-23.82,23.1-26.65,9.43-2.06,5.44-16.52-4-14.47-7.11,1.55-12.29,6.42-16.4,12.18a83.63,83.63,0,0,0-5.29,8.29,43.34,43.34,0,0,0-2.19,4.62c-.35.85-.68,1.71-1,2.59q-1,1.6,1.75-1c-3.76,1.47-6.41,5-5.24,9.23,1,3.59,5.42,6.72,9.23,5.24Z" transform="translate(-71.78 -75.02)"/></g><g class="cls-1"><path class="cls-8" d="M199.89,294.34c7.94,3.34,18.57,3.72,26.62.72,3.8-1.42,6.38-5.07,5.24-9.23-1-3.64-5.41-6.66-9.22-5.24a26,26,0,0,1-18.66-.71c-3.73-1.57-8.25,1.69-9.22,5.24-1.19,4.33,1.49,7.65,5.24,9.22Z" transform="translate(-71.78 -75.02)"/></g><g class="cls-1"><path class="cls-8" d="M217.71,291.72l12.61-.1c4,0,6.42.92,10.2,1.89a41.47,41.47,0,0,0,22.45-.62c9.21-2.81,5.28-17.3-4-14.47-6.91,2.12-12.34,1.11-19.08-.92s-15.13-.83-22.19-.78c-9.65.07-9.67,15.07,0,15Z" transform="translate(-71.78 -75.02)"/></g><g class="cls-1"><path class="cls-8" d="M354.78,300.4c-3.47-19.92-16-36.14-29.07-50.92-6.4-7.25-17,3.39-10.6,10.61,11.46,13,22.16,26.82,25.2,44.3,1.66,9.49,16.11,5.47,14.47-4Z" transform="translate(-71.78 -75.02)"/></g><g class="cls-1"><path class="cls-8" d="M331.87,256.22c1.95,1.4,1.35,1.39.66.31a20,20,0,0,0-1.77-2.42,17.56,17.56,0,0,0-3.72-3c-2.71-1.77-5.47-3.47-8.21-5.2a7.5,7.5,0,1,0-7.57,12.95q4.11,2.61,8.21,5.2c.49.3.65.67.23.14-.77-1,.13.34.26.54a15.85,15.85,0,0,0,4.33,4.46c3.3,2.36,8.36.58,10.27-2.69,2.2-3.77.61-7.9-2.69-10.26Z" transform="translate(-71.78 -75.02)"/></g><g class="cls-1"><path class="cls-8" d="M310.08,243.29c-9.49-7.24-22.22-10-33.84-11.36a105,105,0,0,0-36.68,1.9c-11.05,2.73-20.91,8.54-27.81,17.65a48.13,48.13,0,0,1-4.86,6.06c-2.07,2-4.57,3.45-6.65,5.43a17.59,17.59,0,0,0-5.48,16.24c.6,4,5.66,6.24,9.23,5.24,4.29-1.2,5.84-5.19,5.24-9.23-.23-1.5,7.2-6.05,8.26-7.07,3.13-3,5.21-6.87,8.12-10.06,5.94-6.5,14.57-9.49,23.07-10.84,17-2.72,39.57-1.89,53.83,9,3.24,2.48,8.36.48,10.26-2.69,2.29-3.83.51-7.82-2.69-10.26Z" transform="translate(-71.78 -75.02)"/></g><g class="cls-1"><path class="cls-8" d="M254.39,249.42c-1.37-1.56-.85-2.74-1,.22-.07,1.31-.18,2.61-.26,3.92l-.58,8.82c-.2,3.14-.87,6.66-.64,9.8l-.13,2,2.69-4.3c-.11-.32-3.42-.77-3.83-.87a113.35,113.35,0,0,0-16.78-2.76c-5.69-.51-11.3,0-17-.17l3.79,1-.8-.52,3.45,4.48-.14-.84v4c.49-3.4,3.89-4.29,6.64-5.72a29,29,0,0,0,8.55-6.45,35.9,35.9,0,0,1,2.82-3.22c.29-.26,4.24-2.59,4.24-2.2l-1.88-1.65c0,1.14,0,2.27-.06,3.41l-.11,3.81q-.81,4.32,2.61-.44h4a20.89,20.89,0,0,1-2.72-1.24l-1.75-.92c-1.35-.91-1.3-.47.16,1.3v4c-3,2.37-3.48,3.29-1.31,2.73,4-.58,6.23-5.68,5.24-9.23-1.21-4.3-5.19-5.82-9.23-5.24-7.71,1.12-12.55,9.81-6.87,16.19,4.68,5.26,15.31,10,21.19,4.38,3-2.87,3.53-6.58,3.68-10.56s.68-8.43-.39-12.36c-2.25-8.31-11.18-10.64-18.6-8s-10.55,9.35-17.12,12.78-13.81,8.29-13.81,16.68c0,11,12.66,8.46,19.81,8.69a84.63,84.63,0,0,1,12.9,1.36c4.15.78,8.27,2.3,12.5,2.53s8.57-.94,11.14-4.42,2.16-8.81,2.44-13.06l1-15.68c.32-5,.18-8.85-3.26-12.79-6.35-7.29-16.92,3.36-10.6,10.61Z" transform="translate(-71.78 -75.02)"/></g><g class="cls-1"><path class="cls-8" d="M215.52,371.33l-.32-.11a5.64,5.64,0,0,0-3-.13,5.51,5.51,0,0,0-2.79.89,8.46,8.46,0,0,0-3.45,4.48l-.26,2a7.41,7.41,0,0,0,1,3.79l1.17,1.52a7.44,7.44,0,0,0,3.31,1.92l.32.11a7.23,7.23,0,0,0,7.89-2.69,5.61,5.61,0,0,0,1.34-2.55l.27-2a7.54,7.54,0,0,0-1-3.79l-1.17-1.51a7.4,7.4,0,0,0-3.31-1.93Z" transform="translate(-71.78 -75.02)"/></g><g class="cls-1"><path class="cls-8" d="M217.46,372.3c.36.18,1.31,1.1,1.35,1.52a4.82,4.82,0,0,0-.68-1,25.58,25.58,0,0,0-2.55-3.24c-.13-.13-1.58-1.6-1.59-1.59s1,1.32.13,0c-.5-.77.54,1.61.08,0-1.08-3.77-5.33-6.5-9.22-5.24a7.63,7.63,0,0,0-5.24,9.23,17.59,17.59,0,0,0,4.83,7.82c.28.28,1.34,1.63.43.34.3.43.56.87.86,1.3a11.18,11.18,0,0,0,4,3.85c3.49,1.77,8.29,1,10.26-2.69,1.8-3.42,1-8.37-2.69-10.26Z" transform="translate(-71.78 -75.02)"/></g><g class="cls-1"><path class="cls-8" d="M321.59,262.93c9.65,0,9.67-15,0-15s-9.67,15,0,15Z" transform="translate(-71.78 -75.02)"/></g><g class="cls-1"><path class="cls-8" d="M322.63,264.29c9.66,0,9.67-15,0-15s-9.66,15,0,15Z" transform="translate(-71.78 -75.02)"/></g><g class="cls-1"><path class="cls-8" d="M323.28,264.46c9.65,0,9.66-15,0-15s-9.67,15,0,15Z" transform="translate(-71.78 -75.02)"/></g><g class="cls-1"><path class="cls-8" d="M316.26,257.68v.24a5.73,5.73,0,0,0,.64,2.89,5.62,5.62,0,0,0,1.56,2.41,5.54,5.54,0,0,0,2.41,1.55,5.64,5.64,0,0,0,2.89.65l2-.27a7.4,7.4,0,0,0,3.31-1.93l1.17-1.51a7.54,7.54,0,0,0,1-3.79v-.24a5.64,5.64,0,0,0-.65-2.89,5.54,5.54,0,0,0-1.55-2.41,8.22,8.22,0,0,0-5.3-2.2l-2,.27a7.35,7.35,0,0,0-3.31,1.93l-1.18,1.51a7.41,7.41,0,0,0-1,3.79Z" transform="translate(-71.78 -75.02)"/></g><g class="cls-1"><path class="cls-8" d="M319.58,264.11l.08.08a7.73,7.73,0,0,0,10.61,0l1.17-1.52a7.41,7.41,0,0,0,1-3.79l-.26-2a7.55,7.55,0,0,0-1.93-3.31l-.08-.08a7.71,7.71,0,0,0-10.61,0L318.41,255a7.51,7.51,0,0,0-1,3.78l.27,2a7.55,7.55,0,0,0,1.93,3.31Z" transform="translate(-71.78 -75.02)"/></g><g class="cls-1"><path class="cls-8" d="M326.81,268.71c9.65,0,9.67-15,0-15s-9.67,15,0,15Z" transform="translate(-71.78 -75.02)"/></g><path class="cls-4" d="M279,221.88c-5.1-.69-9,2-13.28,4.25s-9.14,1.27-13.84,1.06c-12.15-.54-21.33,5.66-31.48,11.48-8.38,4.79-.83,17.76,7.57,13,4.55-2.61,9-5.54,13.78-7.79,4.39-2.08,8.65-1.71,13.38-1.44,4.33.25,8.83.33,13-1,3.41-1.08,7.26-5,10.85-4.51,4,.54,7.5-3.83,7.5-7.5,0-4.5-3.47-7-7.5-7.5Z" transform="translate(-71.78 -75.02)"/><path class="cls-4" d="M246,209.76a154.47,154.47,0,0,0-18.34,1.66c-2.7.41-5.4.89-8.07,1.47-1.79.38-7.55.92-8.85,2.22-1.14.07-1.17.36-.08.86.26.6.56.79.88.56a8,8,0,0,0-.38-1.25c-.14-2-1.33-4.42-2.15-6.2a15.15,15.15,0,0,0-10.32-8.5c-9.72-2.23-18.89,4.52-20.62,14.13-2,11,4.79,19.93,13.4,25.86,5.41,3.72,12.9-2.45,11-8.47a64.42,64.42,0,0,1-3-17.41L186.66,220c4.18,3.25,6.34,9.57,2.49,14.06-4.43,5.16-.35,15.32,7.3,12.54l31.15-11.34c6.25-2.27,8-13.05,0-14.46-9.19-1.63-16.36,3.65-24,8-6.91,3.86-14.07,7.49-20.47,12.17-6.09,4.46-11.34,9.82-14.41,16.81-3.36,7.62-4,16-4.73,24.19a342.23,342.23,0,0,0-.12,54.24c.66,8.52.8,18.08,3.43,26.25,2.44,7.56,8.63,13.76,13.39,19.93,5.61,7.26,10.88,14.29,19.4,18.3,6.67,3.13,14.76,4.64,20.26,9.8V399.84c-1.4,1.59-2,1.93-4,1.88-8.85-.21-9.66,12-2,14.73l22.57,8.07c7.19,2.57,14.38,5.58,21.85,7.2,6.63,1.45,13.44,1.8,20,0,2.6-.72,5.07-1.85,7.62-2.72a53.74,53.74,0,0,1,11.6-2.18c6.66-.76,12.56-2.21,18.2-6,5.85-3.91,11.27-8.33,17.23-12.1,10.86-6.87,21.88-13.71,29.47-24.36,8.5-11.94,7.31-25,9-38.83,1.54-12.73,11.9-22.34,11.05-35.62-.43-6.82-3-13.42-5.05-19.87l-6.95-22.17c-4.24-13.52-9.2-27-11-41.09-.95-7.39-2.63-14.67-8.51-19.76-5-4.3-14.28-7.1-19.73-2-6.39,6-1.72,14.29,2.61,19.7A25.05,25.05,0,0,1,340,243.59l12.81-5.3a315.25,315.25,0,0,0-27.56-25.65c-4-3.33-8.7-2.59-11.78,1.52-7.27,9.69.8,24.19,12.95,22.72,4-.48,7.5-3.1,7.5-7.5,0-3.68-3.45-8-7.5-7.5-1.63.2-1.13,1.35,0-.15l-11.78,1.52a313.71,313.71,0,0,1,27.56,25.64c4.82,5.06,12.27.83,12.8-5.3A37.74,37.74,0,0,0,352.34,226a36,36,0,0,0-3.89-7.33c-1-1.4-2.1-2.68-3.16-4l-1-1.1q-.91-2.13-1,.54l-4.48,3.45c6.7-1.85,7.36,19.8,8.25,23.58,2.5,10.69,6.26,21.14,9.55,31.61,3.35,10.68,7,21.3,10,32.08,1.37,5,1.58,9.05-.49,13.84-2,4.52-4.65,8.68-6.47,13.28-3.87,9.86-2.65,20.32-4.12,30.58-1.32,9.28-6.51,16.2-13.52,22.12-7.8,6.59-17.13,11.13-25.38,17.09C312.92,404.5,309.31,408,305,410c-4.95,2.31-10.79,2-16.1,2.88-5.49.89-10.32,3.69-15.73,4.77-6,1.2-12-.54-17.67-2.37-12.52-4.07-24.85-8.83-37.24-13.26l-2,14.73a18.59,18.59,0,0,0,14.64-6.27c2.62-3,3.11-7.7,0-10.61-6.08-5.7-13.5-8.13-21.07-11.19-7.94-3.23-12.26-8.7-17.39-15.35-2.86-3.71-5.92-7.35-8.59-11.2s-3.18-7.87-3.72-12.42q-1.71-14.44-2.16-29t.31-29.08c.48-9,.26-19.48,4-27.84,3.12-6.94,9.85-11.23,16.17-14.94,4.17-2.44,8.43-4.76,12.65-7.12,2.29-1.29,4.59-2.59,6.89-3.87,1.29-.71,4-2.88,5.6-2.59V220.79l-31.15,11.33,7.29,12.54c8.71-10.13,8.56-26.7-2.48-35.27-4.73-3.68-13-1.84-12.8,5.3a80.07,80.07,0,0,0,3.54,21.4l11-8.47c-3-2-9.59-8.56-5.13-12.3,1.53-1.29,1.65.42,2.14,1.72,1,2.67,1.49,5.43,3,7.91,4.76,7.66,12.82,5.24,20.05,3.43A124.3,124.3,0,0,1,246,224.76c9.64-.28,9.68-15.28,0-15Z" transform="translate(-71.78 -75.02)"/><path class="cls-4" d="M323.29,223.58c-8-10.2-20.57-15.15-32.93-17.78-12.95-2.75-28.44-6.17-41.17-1.14-5.62,2.23-7.91,10.32-1.79,13.71,13.16,7.28,26.75-.12,39-5.68,6.58-3,13.2-5.89,19.74-9,6.22-2.92,9.57-8.19,6-14.85a145.9,145.9,0,0,0-10.58-16.4c-4.2-5.73-10-7.83-16.73-9.08-13.57-2.53-28.42-2.35-41.64,2-6,2-11.91,5.45-14,11.81a18.85,18.85,0,0,0,3.24,17.08c7.69,10.22,23.39,12.14,35.16,13.95a192,192,0,0,0,20.45,2.1c6.76.31,14.25-1.17,14.77-9.39.76-12-13.52-21-23.21-24.45-7.4-2.67-15.56-3.35-23.38-3.25-7.35.1-16.79,1-17.11,10.46-.29,8.77,7.8,11.9,14.89,13.53L266.18,200l5.63,1.29,3.75.86q2.76,1-.67-1l-1-3.78c.14,1.62-4.39,7.31-5.95,9.44a86.71,86.71,0,0,1-8.63,9.84c-4.37,4.36-1.73,10.46,3.31,12.53a27.12,27.12,0,0,0,18.71.6c7.73-2.48,6.8-15.16-2-14.74q-31.35,1.51-62.56,4.87c-7.51.81-10.05,9.48-3.78,14,5,3.57,11.05,3.87,17,3.48l-5.3-12.8-25.83,21.8C191.18,252.75,182,259,177.52,268.2s-3.66,19.65-3.67,29.49l0,34,0,16.52c0,4.94-.28,10.15,1.33,14.91,3,8.89,12.45,13.43,18.15,20.41,2.91,3.56,5.2,7.39,9.14,9.95s8.8,3.28,12.91,5.58c8.27,4.63,14.67,11.78,23.39,15.77,17.93,8.19,39.33,8.55,58.46,5,20-3.74,35.6-16.27,50-30,6.9-6.62,13.49-14,18.06-22.44,4.84-9,7.14-18.78,8.25-28.84a169.56,169.56,0,0,0-5.26-64.34c-6-20.87-24.43-36.12-43.11-45.88A117.54,117.54,0,0,0,263.28,215c-3.71.25-6.91,2.67-7.37,6.51-.39,3.31,1.64,7.68,5.38,8.23l38.64,5.65,2-14.73a572.92,572.92,0,0,0-74.34,8.52c-8.65,1.56-6.09,14.37,2,14.73q55.46,2.51,111,3.54c9.67.18,9.64-14.69,0-15q-49.44-1.61-98.92-1.53c-9.75,0-9.52,14.29,0,15l42.31,3.17v-15a481.61,481.61,0,0,0-53,5.58c-3.66.59-5.82,4.9-5.37,8.23.53,3.9,3.59,6.16,7.37,6.5l11.66,1.08v-15L221,241c-8.08.16-10.64,13.32-2,14.73l14.53,2.35-1.79-13.7a28.47,28.47,0,0,0-7.39,5.65c-3.64,3.86-2.45,11.36,3.31,12.54l4.64.94,2-14.73-23.19,1.9,2,14.74a219.24,219.24,0,0,1,43.38-1.6l-3.79-14a21.31,21.31,0,0,1-5.92,2.71c-8,2.28-6.6,14.87,2,14.73a210.77,210.77,0,0,0,30.49-2.82c8.61-1.4,6.12-14.47-2-14.73l-42.07-1.34v15l58.87-.06c9.66,0,9.67-14.94,0-15l-13.83-.08v15a41.91,41.91,0,0,0,20.09-6.36c5.11-3.24,4.82-12.31-1.79-13.71l-22.08-4.66V253a81.5,81.5,0,0,1,15.29-1c1.92.06,3.85.16,5.77.34,1.26.11,2.5.26,3.75.46-.8-.91-.62-.78.53.37,6.67,4.93,13.26,7,21.62,5.54s6.44-15.51-2-14.73l-18.09,1.65c-9.45.86-9.79,15.34,0,15l25.65-.89L327,245l-7.57,2c-8.14,2.14-6.52,14.84,2,14.73l18.35-.24v-15a22.61,22.61,0,0,0-8.5,2.56c-5.12,2.78-4.58,10,0,13l3,1.91,1.79-13.71a11.4,11.4,0,0,0-9.22,11.75l7.5-7.5-4.59.47c-9.49,1-9.8,14.43,0,15l6.66.39v-15l-6.53.77c-8.15,1-10.5,11.95-2,14.73a90.12,90.12,0,0,1,22,10.78l1.79-13.71-8,2.89c-9,3.23-5.47,17,4,14.46l26.86-7.17-9.23-9.22a450.3,450.3,0,0,1-13,50l14.74,2-1.42-32.34h-15a287.45,287.45,0,0,1-.45,34.23l11.28-6.48c-7-5.23-9.39-15.08-11.47-23.11-3-11.65-5.65-23.39-8.31-35.13l-14.46,4a97.23,97.23,0,0,0,11.65,28l6.48-11.28a39.82,39.82,0,0,1-15-3.25l-4,14.47,19,6.34V281.79c-5.94.88-9.46,7.39-8.46,13,1.14,6.4,6.54,9.42,12.14,11.56,7.86,3,13.61-10.4,5.78-13.71a132.64,132.64,0,0,1-34.19-20.81v10.61a61,61,0,0,1,10.81-7.25c7-3.77,3.16-13.42-3.78-14l-6.52-.52,2,14.73q-2.91.15-2.74-2.74l12.53-3.31c-18-22.36-48.83-19.35-74.05-15.5-7.17,1.1-7.16,13.35,0,14.46q24.88,3.87,50,5.66l-2-14.74L264.31,265c-3.67.5-5.81,5-5.37,8.23.54,4,3.6,6.06,7.37,6.51l42.89,5.06v-15l-46.19-1c-9.68-.21-9.63,14.63,0,15l19.53.76c8.59.33,10-12.39,2-14.73l-45.2-13.23v14.46L255,265.34c5.46-2,8.12-10.69,1.79-13.7a32.5,32.5,0,0,0-23.34-2.32c-2.89.79-5.87,4-5.51,7.23a26.87,26.87,0,0,0,2.6,9.27l8.47-11-25-3.48c-7.1-1-15.91-3.79-23-2.19-7.34,1.64-10.55,9.64-7.13,16.12,1.32,2.51,3.53,3.67,2.69,6.55-1,3.55-2.94,6.53-3.55,10.24-1.33,8,1.08,15.81,2.76,23.6a120.1,120.1,0,0,1,2.63,24.5c0,8.06-1,15.85-2,23.82-.9,7.2,0,13.22,4.56,19,2.51,3.23,8,2.59,10.61,0,3.19-3.12,2.48-7.42,0-10.6s.4-11.76.82-15.13a127.44,127.44,0,0,0,1-19,143.19,143.19,0,0,0-2.05-21c-1.06-6.25-3.37-12.49-3.72-18.83-.34-6.18,3.78-10.9,4.33-16.9a15.5,15.5,0,0,0-3.67-11.64l-.79-1.11c-4.27,3.42-5.14,5.08-2.64,5,2.31,1.16,6.84.85,9.45,1.22l9.61,1.34L235,269.26c6.54.92,11.51-4.73,8.47-11a6.4,6.4,0,0,1-.56-1.7l-5.51,7.23a16.45,16.45,0,0,1,11.79.81L251,250.88l-15.66,5.73c-6.75,2.47-7.48,12.27,0,14.46l45.2,13.23,2-14.73L263,268.81v15l46.19,1a7.6,7.6,0,0,0,7.5-7.5c0-4.45-3.46-7-7.5-7.5l-42.89-5.06,2,14.73,42.57-5.76c8.82-1.19,5.9-14.18-2-14.73-15.41-1.08-30.76-2.75-46-5.12v14.46c20.16-3.07,45-6.25,59.45,11.64,3.62,4.49,11.23,1.75,12.54-3.31A12.86,12.86,0,0,0,319.14,261c-8.57,2.22-6.13,14.09,2,14.74l6.52.52-3.79-14A79,79,0,0,0,310,271.84c-2.91,2.48-2.91,8.14,0,10.61a144.77,144.77,0,0,0,37.23,23.15L353,291.89a4.73,4.73,0,0,1-1.26-.55q-2.92-1.9-2.42,4.91c7.91-1.17,6.3-12.35,0-14.46l-19-6.35c-3.87-1.29-8.16,1.5-9.23,5.24-1.23,4.3,1.52,7.68,5.24,9.23a51.12,51.12,0,0,0,19,3.78c5.61.08,9.44-6.46,6.47-11.29A83.62,83.62,0,0,1,341.67,258c-2.28-9.39-16.59-5.41-14.46,4,3,13.15,5.76,26.42,9.45,39.39,3.13,11,7.88,20.88,17.22,27.82,5,3.68,10.92-1.43,11.29-6.48a287.45,287.45,0,0,0,.45-34.23c-.45-9.61-15.43-9.67-15,0L352,320.85c.37,8.48,12.11,10.15,14.73,2a454.33,454.33,0,0,0,13-50c1.1-5.51-3.41-10.78-9.23-9.22l-26.86,7.17,4,14.46,8-2.89c6.16-2.22,7.35-10,1.79-13.7a104.56,104.56,0,0,0-25.56-12.29l-2,14.73,6.53-.77c9.42-1.11,9.85-14.43,0-15l-6.66-.39v15l4.59-.47c4-.41,7.6-3.11,7.5-7.5l-1.79,2.72c6.75-1.16,6.78-10.54,1.79-13.71l-3-1.91v13l.92-.51c4-.53,7.5-3.07,7.5-7.5a7.59,7.59,0,0,0-7.5-7.5l-18.35.24,2,14.73,7.57-2c8.07-2.13,6.57-15-2-14.73l-25.65.89v15L321.43,259l-2-14.74a9.35,9.35,0,0,1-7-1.67c-1.91-1.43-2.85-3.06-5.25-3.91-2-.72-4.63-.74-6.76-1a98.67,98.67,0,0,0-27.93.88c-7.33,1.2-7,13,0,14.47l22.08,4.66L292.77,244a26,26,0,0,1-12.52,4.31c-9.54.63-9.75,14.94,0,15l13.83.08v-15l-58.87.06c-9.67,0-9.64,14.69,0,15l42.07,1.34-2-14.73a183.8,183.8,0,0,1-26.5,2.28l2,14.73a35.49,35.49,0,0,0,9.5-4.22,7.56,7.56,0,0,0-3.78-14A239,239,0,0,0,209.13,251c-8.31,1.17-6.42,15.42,2,14.73l23.19-1.9c7.87-.64,10.84-12.92,2-14.73l-4.63-.95,3.3,12.54a15.35,15.35,0,0,1,4.36-3.31c5.35-2.84,4.66-12.66-1.79-13.71L223,241.27,221,256l23.55-.49c9.8-.2,9.48-14.13,0-15l-11.66-1.08,2,14.74a443.25,443.25,0,0,1,49.05-5.05c9.71-.47,9.59-14.28,0-15L241.63,231v15q49.47-.08,98.92,1.53v-15q-55.5-1-111-3.54l2,14.73a542.9,542.9,0,0,1,70.35-8c7.93-.38,10.78-13.45,2-14.73l-38.65-5.66-2,14.73A102.89,102.89,0,0,1,311,238.13c14.31,6.23,30.26,16.46,38.52,30.09,4.49,7.41,6,16.48,7.46,24.9a169.74,169.74,0,0,1,2.31,29c-.06,17.91-2.74,34.86-14.81,48.78A172.28,172.28,0,0,1,326,388.73c-6.31,5.38-13.25,10.49-21.06,13.45-15.55,5.89-35.19,6.52-51.22,2.22-7.92-2.13-14.38-6.07-20.77-11.1a79.33,79.33,0,0,0-10-7.17c-3.67-2.05-8-2.76-11.59-4.79-3-1.69-4.78-5.14-6.9-7.75a66,66,0,0,0-9.35-9.34c-2.61-2.16-5.54-4-6.12-7.54-.74-4.58-.13-9.69-.13-14.31l.05-33,0-16.52c0-4.68-.3-9.59.78-14.18,2.23-9.5,12.75-15.81,19.76-21.73l25.83-21.79c4.89-4.13,1-13.22-5.3-12.81-3.43.23-6.5.64-9.39-1.43l-3.79,14Q248,231.51,279.31,230l-2-14.73a14.1,14.1,0,0,1-10.74-.59l3.31,12.53a106.54,106.54,0,0,0,12.52-15c3.4-5,8.33-11.43,5.81-17.74s-9.54-6.94-15.24-8.25l-10.31-2.36L257,182.54l-1.88-.43q-4.22-1.8-2.35,5.48l-3.78,1c8.25-.93,17.18-.74,25.13,1.83,3.6,1.16,14,5.79,13.64,10.48l1-3.79c.86-2,5.16-1.57.13-1.78-1.54-.06-3.09-.14-4.63-.25-2.78-.18-5.55-.44-8.31-.76a158.73,158.73,0,0,1-17.2-3c-4.26-1-9.85-1.8-13.28-4.79-2.58-2.26-3.08-4.72.24-6.2,9.52-4.24,22.31-4.31,32.43-2.88,4.66.65,9.29,1,12,5,1.71,2.55,3.31,5.18,5,7.76,1.1,1.72,3.57,4.8,3.84,6.06v-4q3-3.76-.47-1.54L295,192.4l-5.38,2.45L276.13,201c-5.83,2.65-14.75,8-21.16,4.46l-1.79,13.71c10.27-4.06,22.74-1.08,33.19,1.14,10.14,2.15,19.71,5.54,26.32,13.91,2.53,3.21,7.95,2.6,10.6,0,3.18-3.1,2.5-7.44,0-10.6Z" transform="translate(-71.78 -75.02)"/><path class="cls-4" d="M196.65,267.6c6.88,11.49,20.14,13.58,32.25,15.75l49.18,8.82c9.34,1.67,13.49-12.06,4-14.47a306.71,306.71,0,0,1-43.39-14.47c-7.32-3.08-13.86-4.94-21.43-1.46-6.25,2.86-11.09,5.1-18.18,4.72-4.95-.26-8.44,5-7.24,9.5,1.6,6,3.33,12,3.56,18.25.23,6.44-1.49,12.65-2.37,19-1.74,12.42-2.47,25.3-.65,37.74a59.94,59.94,0,0,0,11.89,28.27c6.38,8.16,14.56,13,24.36,16,4.57,1.41,6.59,2.44,9,6.62,3.28,5.77,7.9,8.69,14.33,10.13a165.12,165.12,0,0,0,38.42,4.2c5.57-.1,10.95-1.19,15.4-4.71,4.06-3.21,6-8.66,10.67-11.1s9.84-3.37,14.55-5.39a64.7,64.7,0,0,0,15.25-8.9c10.41-8.45,9.8-20.74,9.57-32.91-.12-6.48,1.18-10.75,4.13-16.44,3.19-6.18,5.52-13.13,2.7-19.93-3.67-8.83-16.17-5.69-14.46,4a130.11,130.11,0,0,1,1,36.6l14.73-2a502.74,502.74,0,0,0-22.59-50.65c-4.06-7.86-7.69-15.92-15.06-21.21a98.51,98.51,0,0,0-23.06-12.14c-8.93-3.26-18.45-3.27-27.82-3.23-9.79.05-19.57.14-29.35.22-8.86.08-17.55-.12-25.83,3.47-6.64,2.88-16.68,7.68-18.88,15.21-1.33,4.55.06,8.74,1.68,13a64.7,64.7,0,0,1,3.82,14.4,63.13,63.13,0,0,1-3.12,28.91l14.73,2-1.9-20.65c-.89-9.66-14-9.62-15,0-1.55,15.39,4.12,30,10,43.88,2.23,5.3,4.66,10.42,9.1,14.25s10.2,5.33,14.94,8.71c3.78,2.7,3.79,8,6.35,11.68,4.24,6.06,10.65,6.27,17.35,5.52a118.16,118.16,0,0,1,22.33-.44c6.58.5,14,3.1,20.31.1a14.81,14.81,0,0,0,6.51-6c1.42-2.45,1.7-5.52,3.12-7.91,1.15-1.95,2.91-2.47,5-3.1,4.22-1.28,8.5-2.38,12.75-3.57,6-1.67,13.05-2.74,17.83-7,5.43-4.85,7.44-12.5,7.11-19.59-.65-14.2-9.7-25.9-13.16-39.35-1.8-7-3.57-13.73-7.82-19.66a67.88,67.88,0,0,0-14.7-14.51c-12.12-9-25.38-10.92-40.07-8.86-7.23,1-14.39,2.69-21.72,2.68-7.91,0-15.64-2-23.45-3-6-.77-13.24-1.72-19,.56-9.06,3.6-6.18,11.94-4.34,19.14,3.64,14.24,3.43,29.34,4.09,43.93.33,7.27.32,14,5.13,19.92,4.64,5.67,10,10.88,15,16.25s9.72,11.38,15.26,16.19c6,5.18,13,6,20.58,6.3,7,.32,14,.71,21,.66,3.48,0,6.79-.37,9.91-2,3.34-1.78,6.14-4.37,9.55-6.08,5.34-2.67,11.25-4.06,17-5.58,6.62-1.74,15.3-3,17.61-10.6s-4.47-13.29-5.21-20.4c-.78-7.52-.76-14.44-4.2-21.41-3.15-6.39-7.31-11.82-9.59-18.65-2-5.83-3.63-12-7-17.24-9.19-14.14-25.85-13-40.8-13.61l-55-2.13c-7.14-.28-9,8.1-5.3,12.8s3,13.43,3.6,19q1.36,12.56,3.38,25c1.14,7.05,1.58,15.53,5.18,21.85,3.3,5.78,9.69,7.68,14.06,12.36s7.92,9.73,13.7,12.55c6.78,3.31,14.65,2.77,22,2.77,15.23,0,31.08-.68,45.47-6.16,7.92-3,12.15-8.55,9.16-17.21-2.63-7.59-6-15-8.9-22.5l-9.26-23.4c-2.68-6.79-4.74-14.79-9.58-20.41s-11.92-7.64-18.82-9a156,156,0,0,0-23.3-2.69,217.18,217.18,0,0,0-24.34,0c-8.6.59-11.92,7.19-11.11,15.25.87,8.64,5.27,16.62,7,25.12a76.25,76.25,0,0,1,1.5,13c.13,4.16-.43,8.5.66,12.57,4.12,15.4,26.56,21.14,40.28,20.23,9.58-.64,9.65-15.64,0-15a35.29,35.29,0,0,1-18.08-3.18c-2.2-1.07-5.9-2.76-7.24-5-1.54-2.52-.53-6.83-.62-9.66a96.72,96.72,0,0,0-3.36-22.44c-1-3.51-2.25-6.87-3.45-10.3a39.73,39.73,0,0,1-1.51-4.87,10.8,10.8,0,0,1-.36-2.12q.47-3.63-1.34.5l-3.78,1a193.91,193.91,0,0,1,32.24.31,109.76,109.76,0,0,1,15.53,2.31c4.33,1,8.15,2,10.26,6.16,4.7,9.27,7.87,19.65,11.69,29.31l6.41,16.2,2.85,7.2c.91,2.32,2.73,5.25,2.66,7.8l1-3.79c-.59,1.36-7.29,2.43-8.61,2.77A88.83,88.83,0,0,1,302.8,374a173.28,173.28,0,0,1-21.24,1.08c-5.64,0-13.93,1.46-18.72-2.15-4.49-3.38-7.37-8.58-11.74-12.15-2.15-1.75-5.59-2.94-7.43-4.93s-1.92-5.47-2.36-7.82q-2.16-11.4-3.7-22.91c-1.74-13.09-.54-28.37-9.15-39.21l-5.3,12.81,40.25,1.56,18.65.72c5.91.23,12.95-.45,18.57,1.76,8.27,3.24,9.47,14.68,12.26,21.95a88.49,88.49,0,0,0,7.33,14,29.32,29.32,0,0,1,4.3,14.73c.34,5.74.91,11.3,3.6,16.48a12.72,12.72,0,0,0,1.46,2.56l.71,1.32q2.77-3.89-.52-2.24c-2.55-.18-6.36,1.7-8.85,2.37a105.25,105.25,0,0,0-15.18,5.08,47.46,47.46,0,0,0-7.22,3.82c-2.77,1.82-4.23,3.54-7.64,3.62-5.69.13-11.46-.27-17.15-.49-6.17-.25-11.6.31-16.14-4.34-8.89-9.1-17.55-18.58-26-28.07-3.51-3.94-2.53-10.05-2.76-15.07-.28-6.13-.5-12.28-.89-18.41a179,179,0,0,0-2-18.62,89.59,89.59,0,0,0-2-9s-.79-3.4-1.09-3.55c-4.22,3.28-4.94,4.6-2.16,4,.9-.07,1.8-.1,2.7-.1,12.46-.13,24.47,4.35,37,3.59,11.82-.72,24.23-5.48,36.07-3,10,2.11,20.57,10.45,25.69,19.2,3,5.1,3.69,11.11,5.34,16.7,1.74,5.87,4.44,11.37,7,16.9,2.19,4.72,4.36,9.76,4.71,15,.14,2.2.09,5.16-1.1,7.13-1.47,2.44-4.61,2.72-7.15,3.43-5.68,1.59-11.38,3.12-17,4.76-5.5,1.59-11,3.75-14.32,8.69a32.35,32.35,0,0,0-3.21,7.18c-.83,2.29-.3,2.58-2.6,2.37-6.91-.62-13.62-1.78-20.59-1.81-3.42,0-6.84.12-10.24.41-2.23.18-7.23,1.77-9.44.9.92.36.75.55.39,0-.75-1.17-1-2.92-1.49-4.23a22.78,22.78,0,0,0-4.09-7.08c-3.41-3.87-8.09-5.94-12.59-8.22-5-2.57-7.6-5.31-9.92-10.52-5.52-12.37-10.67-25.74-9.28-39.49h-15l1.9,20.65c.77,8.35,11.91,10.28,14.73,2a76.69,76.69,0,0,0,1.5-44.62c-.9-3.33-3.23-7.05-3.63-10.45-.21-1.8-.56,0,.36-1,1.21-1.32,3.59-2.33,5.13-3.25,7-4.14,13.59-4.51,21.57-4.58l24.46-.2c8.09-.05,16.64-.78,24.64.68,7.79,1.43,14.66,5.43,21.41,9.38,2.78,1.63,5.59,3.18,7.54,5.83,2.2,3,3.77,6.6,5.49,9.87a470.42,470.42,0,0,1,22.82,50.4c3.09,8.07,13.8,6.54,14.73-2a143.48,143.48,0,0,0-1.53-40.59l-14.46,4c1.95,4.7-1.53,8.64-3.54,12.75a38,38,0,0,0-3.78,15c-.4,7.63,2.73,18.71-3,24.94-6.55,7.17-17.39,9-25.92,12.55a26,26,0,0,0-10.78,8c-3.09,3.87-4.66,6.93-10,7.2-11,.55-22.62-1.13-33.4-3.27-2-.4-4.64-.59-6.21-1.92-1.41-1.2-2.15-4-3.24-5.58-2.89-4.13-7.05-6.55-11.69-8.3-8-3.05-14.77-4.83-20.44-11.83-5.28-6.52-8.28-14.95-9.32-23.2-1.5-12.07-.38-25,1.78-36.88,1.07-5.9,2.08-11.81,1.64-17.83-.5-6.93-2.19-13.68-4-20.37l-7.23,9.49a41.61,41.61,0,0,0,19-3.41c2.36-1,5.27-3.38,7.94-3.45,3.43-.08,7.35,2.51,10.44,3.79a305.14,305.14,0,0,0,41.67,13.75l4-14.47-43.27-7.76c-6.16-1.1-12.45-1.94-18.52-3.54-4.13-1.09-8.37-2.53-10.67-6.37-4.95-8.28-17.92-.74-12.95,7.57Z" transform="translate(-71.78 -75.02)"/><path class="cls-4" d="M241.46,311.53c11.4,7.74,24.58,5.45,37.45,7.19,5.07.69,10.35,2.17,13.51,6.47,4.19,5.7,6.17,13.77,8.59,20.31q2,5.43,3.9,10.89c.61,1.76,1.24,3.53,1.81,5.31.24.75.53,3.58,1,4,0,1.84.89,1.05,2.73-2.4l-3,.41-5.9.82-11.8,1.64-5.9.82c-1.37.19-4.6,0-5.66.76-1.66,0-1.15.64,1.51,1.89-.17-.66-.33-1.32-.46-2a30,30,0,0,0-1.24-4.15,29.45,29.45,0,0,0-12.52-14.75c-3.87-2.35-10.13-.3-11,4.48-1.62,8.74.54,16.95,6.8,23.38,6.11,6.28,15.61-1.68,11.78-9.09s-9.17-15.11-11.4-23.12c-2.34-8.4-1.51-18.35-2-27l-7.5,7.5a203.86,203.86,0,0,1,22.91,1.25c3.45.4,6.88.93,10.3,1.54q2.82.51,5.63,1.09l2.81.61c-1.63-3.46-2.39-4.14-2.31-2-1.11,2.52-.41,7.51-.55,10.25-.2,3.65-.52,7.32-.41,11a40.31,40.31,0,0,0,6.16,20.46l4.48-11c-8.19,3.41-15.94.17-22.62-4.93a103.1,103.1,0,0,1-8.71-7.74c-3.14-3-3-4.36-1.64-8.58a44.17,44.17,0,0,1,1.79-4.1,1.18,1.18,0,0,1-1.45.34,24,24,0,0,1,2.24,1.33c2.8,1.79,5.45,3.53,8.72,4.43.63.17,4.47,1.31,4.92,1l.38,0c-1.32-2-2-1.83-2.05.39-1.12,1.6-1.38,5.08-1.9,7l-1.9,7,13.71-1.79-8.89-11.81c-2.73-3.64-5.14-7.38-9.23-9.6-8.48-4.62-16.06,8.32-7.57,12.95,2.61,1.42,4.31,4.83,6.07,7.17l6.66,8.86c3.69,4.91,11.87,5,13.71-1.79s5.5-14.85,5-21.91S292.26,326,286.06,324.8c-5.22-1-8.76-5.11-13.94-6.3-6.84-1.58-13,2.43-16,8.44s-5.23,13.73-3,20.36c2,6,7.89,10.45,12.48,14.39,10.81,9.26,25.36,16.76,39.66,10.8,4.26-1.77,7.32-6.48,4.48-11-4.76-7.59-4.17-15.26-3.7-23.87.37-6.79,2.83-17.05-4.37-21.23-6.22-3.61-15.72-3.84-22.72-4.76a207.21,207.21,0,0,0-26.7-1.72c-3.9,0-7.71,3.44-7.5,7.5.52,10-.22,21.24,2.5,31,2.59,9.33,8.49,18.15,12.91,26.71L272,366a9.84,9.84,0,0,1-2.95-8.79l-11,4.48a14,14,0,0,1,6.37,7.86c1.13,3.47,1.33,6.86,4,9.7,6.31,6.74,18.7,2.31,26.45,1.24l13.77-1.91c4.16-.58,8.47-.66,11.4-4,6-6.9,1-17.64-1.55-24.92-3.12-8.86-6.27-17.81-10.09-26.4-3-6.81-7.63-12.47-14.45-15.71s-14.69-4.05-22.29-4.31c-7.85-.28-15.8-.09-22.56-4.68-8-5.43-15.52,7.56-7.57,13Z" transform="translate(-71.78 -75.02)"/><path class="cls-9" d="M406.45,235.84l.5.91-3.9-14.39.08.93,1-7.57a19.3,19.3,0,0,1,5.08-8.66q-1.53,2-3,3.91c-3.07,4-4.82,6.54-6.41,11.77S398,234,397.6,239.62q-1,12.51-1.62,25.05c-.89,17-1.34,34-1.57,51.05-.44,33.77.68,67.58,0,101.34l1-7.57a5.36,5.36,0,0,1-.66,2.47l7.33-12.58a16.9,16.9,0,0,1,6.31-3.86c2.91-1.17,3-1.27.41-.31-1.57.48-3.12,1.08-4.68,1.62l-10.28,3.57L430,427.89a8.77,8.77,0,0,1-.14-3l-1,7.57a8.67,8.67,0,0,1,.89-2.89c2.3-5.69.8-13.24-1.44-18.56s-6.28-11-11.66-13.62c-15.34-7.48-29.39-4.47-41.94,6.33-1,.82-1.93,1.67-2.81,2.58-2.22,2.28,5.54-3.18,1.28-1.11-5,2.45,6.46-1.43,1-.26-1.57.33-3.09.77-4.69,1l22,52.09,11.43-7.42c12.49-8.12,18.84-25.64,10.23-39-8.14-12.63-25.5-18.71-39-10.22-3.74,2.35-7.55,4.59-11.47,6.64-1.83,1-3.67,1.88-5.54,2.77s-9.43,3.37-1.28.69c-8,2.64-16.21,5.46-24.05,8.62-18.36,7.4-33.11,19.87-50.32,29.23l14.38-3.89-1.19.12,14.38,3.89-.66-.47,13.1,17-.24-.76-2.87,22,.36-.61-52.09-6.81.3,1.69-1-7.57a36.45,36.45,0,0,1,.1,6.85l1-7.57a33.62,33.62,0,0,1-.81,4.21c-.54,2-2.52,5.42.7-1.21-4.1,8.43-5.14,16.59-1.43,25.36a28.09,28.09,0,0,0,18.47,16.5c10.71,3.12,21.18,1.12,31-3.67,4.79-2.34,8.79-5.94,13.22-8.85a110.7,110.7,0,0,1,13.35-7.29c3.18-1.52-6.1,2.27-1.33.62,1.07-.36,2.12-.76,3.19-1.12,2.77-.92,5.58-1.66,8.4-2.42a93.28,93.28,0,0,0,32.77-16,99.29,99.29,0,0,1,13.6-8.61c3.14-1.65-5.47,1.91-2.06.92,1.36-.4,2.69-1,4-1.4,2.73-.88,5.48-1.65,8.23-2.44,14.33-4.07,24.67-20.33,19.9-35.05s-19.69-24.27-35-19.91c-11.05,3.14-22.36,6.8-31.94,13.28-4,2.7-7.69,5.78-11.64,8.52-2.09,1.45-4.25,2.7-6.47,3.95-3.75,2.13,1.59-1.17,2-.79-.28-.25-3.83,1.24-4.23,1.35-11.29,3.3-22.2,6.62-32.75,12a93.72,93.72,0,0,0-12.26,7.5c-1.81,1.3-3.56,2.7-5.41,3.94-.82.55-5.42,2.77-.94,1s-.12-.2-1.08,0l7.58-1a9.64,9.64,0,0,1-3-.11l7.58,1-1.51-.44L316,505c6.48-13.34,8-25.72,5.45-40.32-1.91-10.93-13.55-19.05-23.69-20.42a28.6,28.6,0,0,0-28.4,13.61c-8.3,13.95-3.48,32.77,10.76,40.84A30.36,30.36,0,0,0,306.71,500a58.57,58.57,0,0,0,9.28-5.11c9.31-6,18.49-12.34,28.1-17.86,2.06-1.19,4.18-2.25,6.29-3.35,5.32-2.76-4.39,1.48-1,.37,1.18-.38,2.33-.86,3.5-1.26,5.17-1.79,10.4-3.37,15.51-5.35a199.62,199.62,0,0,0,34.37-16.82L374,401.38l-11.43,7.42c-12,7.78-17.32,22.19-11.66,35.59,2.31,5.48,6.26,10.78,11.66,13.63,7.2,3.81,14,4.13,22,2.88a49,49,0,0,0,18-6.94,74.35,74.35,0,0,0,9.58-7.37c.75-.67,1.54-1.36,2.24-2.08q1.67-1.45-1.08.85a14.33,14.33,0,0,1-5.94,3.4l-7.58,1,1.24.12L386.63,446l1.19.57-13.1-32.18A28.06,28.06,0,0,0,373,427.89c1.24,9.33,3.52,16.42,11.23,22.38,6.77,5.23,16.38,8,24.84,5.1,11.06-3.84,25.42-6.63,33.39-15.69,6.69-7.59,9-15.94,9-25.88,0-4.57,0-9.13-.05-13.69-.08-18.63-.19-37.27-.17-55.9,0-37.25-.16-75.1,4-112.17l-1,7.58a18.25,18.25,0,0,1-4.7,7.75l.78-1c3.59-5,5-6.07,7.1-11.13,4-9.55,3.26-19-1.75-28.16-7.15-13.11-26.32-18.4-39-10.23-13.28,8.57-17.87,25-10.22,39Z" transform="translate(-71.78 -75.02)"/><path class="cls-9" d="M291.21,525.64c14.91,0,29.19-13.11,28.5-28.5s-12.52-28.5-28.5-28.5c-14.9,0-29.19,13.11-28.5,28.5s12.53,28.5,28.5,28.5Z" transform="translate(-71.78 -75.02)"/><path class="cls-9" d="M291.21,525.64c14.91,0,29.19-13.11,28.5-28.5s-12.52-28.5-28.5-28.5c-14.9,0-29.19,13.11-28.5,28.5s12.53,28.5,28.5,28.5Z" transform="translate(-71.78 -75.02)"/><path class="cls-9" d="M291.21,525.64c14.91,0,29.19-13.11,28.5-28.5s-12.52-28.5-28.5-28.5c-14.9,0-29.19,13.11-28.5,28.5s12.53,28.5,28.5,28.5Z" transform="translate(-71.78 -75.02)"/><path class="cls-9" d="M291.21,525.64c14.91,0,29.19-13.11,28.5-28.5s-12.52-28.5-28.5-28.5c-14.9,0-29.19,13.11-28.5,28.5s12.53,28.5,28.5,28.5Z" transform="translate(-71.78 -75.02)"/><path class="cls-9" d="M311.37,517.3l.64-.65a31.76,31.76,0,0,0,8.35-20.15A31.76,31.76,0,0,0,312,476.35l-5.77-4.46A28.37,28.37,0,0,0,291.86,468l-7.58,1a28.48,28.48,0,0,0-12.58,7.33l-.64.64a31.76,31.76,0,0,0-8.35,20.15,31.81,31.81,0,0,0,8.35,20.16l5.77,4.45a28.27,28.27,0,0,0,14.38,3.89l7.58-1a28.46,28.46,0,0,0,12.58-7.32Z" transform="translate(-71.78 -75.02)"/><path class="cls-9" d="M282.21,528.64c9.42,0,18.44-8.28,18-18s-7.9-18-18-18c-9.41,0-18.43,8.28-18,18s7.91,18,18,18Z" transform="translate(-71.78 -75.02)"/></g><g id="Layer_1" data-name="Layer 1"><path class="cls-4" d="M264.93,89,449.47,191.22l7.58-12.95-59.49-33c-8.45-4.68-16,8.27-7.57,13l59.48,32.95c8.46,4.69,16-8.26,7.58-12.95L272.5,76c-8.45-4.68-16,8.27-7.57,13Z" transform="translate(-71.78 -75.02)"/><path class="cls-4" d="M144.73,156.46l55,31.83,7.57-12.95-17.72-10.26c-8.37-4.85-15.93,8.11-7.57,12.95l17.72,10.26c8.37,4.85,15.93-8.11,7.57-12.95l-55-31.83c-8.37-4.85-15.93,8.11-7.57,13Z" transform="translate(-71.78 -75.02)"/><path class="cls-4" d="M211.19,124.36l179.16,99.26,7.57-13-57.75-32c-8.45-4.68-16,8.27-7.57,13l57.75,32c8.45,4.68,16-8.27,7.57-13L218.76,111.41c-8.45-4.69-16,8.26-7.57,13Z" transform="translate(-71.78 -75.02)"/><path class="cls-4" d="M76.37,360.36l188.56,96.12,7.57-13-60.78-31c-8.58-4.37-16.18,8.56-7.57,12.95l60.78,31c8.58,4.37,16.18-8.57,7.57-13L83.94,347.41C75.35,343,67.75,356,76.37,360.36Z" transform="translate(-71.78 -75.02)"/><path class="cls-4" d="M75.71,441.48l189,99.46,7.57-13-60.91-32.06c-8.54-4.5-16.13,8.45-7.57,12.95l60.91,32.06c8.53,4.49,16.12-8.45,7.57-13l-189-99.47c-8.54-4.49-16.13,8.45-7.58,13Z" transform="translate(-71.78 -75.02)"/><path class="cls-4" d="M358.36,375.37c10.46,5.73,20.83,11.63,31,17.85l7.57-13q-2-1.09-3.93-2.24l-7.57,13q2,1.11,3.93,2.24l5.78-13.71a13.14,13.14,0,0,1-4.85-2.81l-10.6,10.6A31.3,31.3,0,0,0,391.16,394c8,2.62,13.33-9.76,5.78-13.71a71.58,71.58,0,0,1-6.15-3.75l-7.58,13c2,1.31,4,2.62,6.16,3.74,8.52,4.48,16.05-8.25,7.57-13l-6.46-3.58-7.57,12.95c2.18,1.16,4.28,2.44,6.46,3.58l7.57-13c-2.19-1.12-4.26-2.44-6.44-3.57-8.56-4.45-16.15,8.49-7.58,12.95,2.19,1.13,4.26,2.46,6.45,3.57,8.56,4.35,16.08-8.24,7.57-13l-6.41-3.56-7.58,13c2.18,1.13,4.24,2.45,6.42,3.56l7.57-13a71.58,71.58,0,0,1-6.15-3.75c-8.19-5.17-15.72,7.8-7.58,13a69.2,69.2,0,0,0,6.16,3.74c8.58,4.25,16.09-8.23,7.57-13l-6.43-3.57c-8.45-4.68-16,8.27-7.57,13l6.43,3.56,7.57-13-31-17.18c-8.45-4.68-16,8.27-7.57,13l31,17.18c8.45,4.68,16-8.27,7.57-13l-6.43-3.57c-8.45-4.68-16,8.27-7.57,13l6.43,3.56,7.57-13a67.73,67.73,0,0,1-6.15-3.75l-7.58,13c2.05,1.29,4,2.66,6.16,3.74,8.61,4.28,16.21-8.58,7.57-13-2.18-1.11-4.24-2.43-6.41-3.56-8.55-4.4-16.07,8.25-7.58,13l6.42,3.56,7.57-13c-2.19-1.12-4.26-2.44-6.44-3.57l-7.58,12.95c2.19,1.13,4.26,2.46,6.45,3.57,8.58,4.36,16.16-8.47,7.57-13-2.18-1.14-4.28-2.42-6.46-3.58-8.5-4.53-16,8.26-7.57,12.95l6.46,3.58,7.57-13c-2.14-1.13-4.13-2.43-6.15-3.75-8.12-5.28-15.63,7.69-7.58,13,2,1.32,4,2.62,6.16,3.74l5.78-13.71a13.22,13.22,0,0,1-4.85-2.81c-7.19-6.4-17.83,4.16-10.6,10.6A31.44,31.44,0,0,0,391.16,394c8.16,2.67,13.07-9.51,5.78-13.71Q395,379.15,393,378c-8.42-4.74-15.92,8.08-7.57,13q2,1.14,3.93,2.24c8.45,4.71,15.82-7.91,7.57-13-10.18-6.22-20.55-12.12-31-17.85-8.47-4.65-16.05,8.3-7.57,12.95Z" transform="translate(-71.78 -75.02)"/><path class="cls-4" d="M321.9,418.53l7.37,3.64,7.57-12.95-7.48-3.7c-3.51-1.73-8.28-1.06-10.26,2.69-1.79,3.39-1.06,8.41,2.69,10.26l7.48,3.7c3.51,1.74,8.28,1.06,10.26-2.69,1.79-3.38,1.07-8.4-2.69-10.26l-7.37-3.65c-3.51-1.73-8.28-1.06-10.26,2.7-1.79,3.38-1.07,8.4,2.69,10.26Z" transform="translate(-71.78 -75.02)"/><path class="cls-4" d="M321.84,418.43l7.43,3.74,7.57-12.95-7.37-3.65c-3.51-1.73-8.28-1.06-10.26,2.7-1.79,3.38-1.07,8.4,2.69,10.26l7.37,3.64c3.51,1.74,8.28,1.06,10.26-2.69,1.81-3.41,1.05-8.37-2.69-10.26l-7.43-3.74c-3.5-1.76-8.29-1.05-10.26,2.69-1.8,3.4-1,8.38,2.69,10.26Z" transform="translate(-71.78 -75.02)"/><path class="cls-4" d="M366.82,295.08q12.29,6.85,24.69,13.49c8.5,4.54,16-8.25,7.57-12.95l-7.7-4.26c-8.71-4.83-15,7.22-7.57,12.95a35.29,35.29,0,0,0,7.7,4.26c8.61,3.77,16.23-8.15,7.57-12.95L392.53,292,385,305l6.55,3.62,7.57-12.95-24.92-13.81c-8.46-4.68-16,8.27-7.58,13l24.93,13.8c8.45,4.69,16-8.26,7.57-12.95L392.53,292c-8.45-4.68-16,8.27-7.57,13l6.55,3.62,7.57-12.95a35.71,35.71,0,0,1-7.7-4.26l-7.57,12.95,7.7,4.26,7.57-12.95q-12.42-6.62-24.69-13.49c-8.44-4.71-16,8.24-7.57,12.95Z" transform="translate(-71.78 -75.02)"/><path class="cls-4" d="M72,185V435c0,9.65,15,9.67,15,0V185c0-9.65-15-9.67-15,0Z" transform="translate(-71.78 -75.02)"/><path class="cls-4" d="M446,185V435c0,9.65,15,9.67,15,0V185c0-9.65-15-9.67-15,0Z" transform="translate(-71.78 -75.02)"/><path class="cls-4" d="M261,150q.12,9.09.21,18.17c.08,9.65,15.08,9.67,15,0q-.09-9.09-.21-18.17c-.13-9.64-15.13-9.67-15,0Z" transform="translate(-71.78 -75.02)"/><path class="cls-4" d="M196,183.62q.24,13.94.34,27.89c.06,9.64,15.06,9.67,15,0q-.09-13.95-.34-27.89c-.17-9.65-15.17-9.68-15,0Z" transform="translate(-71.78 -75.02)"/><path class="cls-4" d="M326,184q.35,13.51.38,27.05c0,9.65,15,9.66,15,0q0-13.53-.38-27.05c-.24-9.64-15.24-9.67-15,0Z" transform="translate(-71.78 -75.02)"/><path class="cls-4" d="M194,421v78.21c0,9.66,15,9.67,15,0V421c0-9.65-15-9.67-15,0Z" transform="translate(-71.78 -75.02)"/><path class="cls-4" d="M326,421v78.63c0,9.65,15,9.67,15,0V421c0-9.65-15-9.67-15,0Z" transform="translate(-71.78 -75.02)"/><path class="cls-4" d="M261.21,450v84c0,9.65,15,9.67,15,0V450c0-9.65-15-9.67-15,0Z" transform="translate(-71.78 -75.02)"/><path class="cls-4" d="M79.71,187.21c3.22,0,3.23-5,0-5s-3.22,5,0,5Z" transform="translate(-71.78 -75.02)"/><path class="cls-4" d="M83.29,191.48,272.5,89l-7.57-13-61,33c-8.49,4.6-.93,17.56,7.57,13l61-33c8.49-4.6.93-17.56-7.57-13L75.71,178.52c-8.49,4.6-.92,17.56,7.58,13Z" transform="translate(-71.78 -75.02)"/><path class="cls-4" d="M336.79,188.29l53.8-31.35L383,144,365.67,154.1c-8.33,4.85-.79,17.82,7.58,13l17.34-10.11c8.33-4.86.79-17.82-7.57-12.95l-53.81,31.35c-8.33,4.86-.79,17.83,7.58,12.95Z" transform="translate(-71.78 -75.02)"/><path class="cls-4" d="M399.08,308.57l55.3-29.33-7.57-12.95L429,275.75c-8.54,4.52-1,17.47,7.57,12.95l17.82-9.46c8.53-4.52,1-17.47-7.57-12.95l-55.3,29.33c-8.53,4.53-1,17.48,7.57,12.95Z" transform="translate(-71.78 -75.02)"/><path class="cls-4" d="M142.06,224.91,328.19,124.24l-7.57-12.95-60,32.45c-8.49,4.59-.93,17.55,7.57,12.95l60-32.45c8.49-4.6.93-17.55-7.57-12.95L134.49,212c-8.49,4.59-.93,17.55,7.57,12.95Z" transform="translate(-71.78 -75.02)"/><path class="cls-4" d="M205.29,422.21q4.05-2.43,8.16-4.76c3.42-1.93,4.87-6.88,2.69-10.26a7.65,7.65,0,0,0-10.26-2.69q-4.11,2.34-8.17,4.76c-3.36,2-4.9,6.83-2.69,10.26a7.63,7.63,0,0,0,10.27,2.69Z" transform="translate(-71.78 -75.02)"/><path class="cls-4" d="M141.51,392.76c11.61-5.89,23.05-12.12,34.45-18.41,8.46-4.66.9-17.62-7.57-13-11.4,6.29-22.84,12.51-34.45,18.41-8.61,4.38-1,17.32,7.57,12.95Z" transform="translate(-71.78 -75.02)"/><path class="cls-4" d="M142.06,311.64,167.29,298c8.49-4.61.92-17.56-7.57-13l-25.23,13.69c-8.49,4.61-.92,17.56,7.57,12.95Z" transform="translate(-71.78 -75.02)"/><path class="cls-4" d="M272.5,456.48l184.55-96.59-7.58-12.95L390,378.07c-8.56,4.48-1,17.43,7.57,12.95l59.49-31.13c8.55-4.48,1-17.43-7.58-12.95L264.93,443.52c-8.56,4.48-1,17.43,7.57,13Z" transform="translate(-71.78 -75.02)"/><path class="cls-4" d="M146,464V219.91H131V299c0,9.65,15,9.67,15,0V219.91c0-9.65-15-9.66-15,0V464c0,9.65,15,9.67,15,0Z" transform="translate(-71.78 -75.02)"/><path class="cls-4" d="M401,464V217.14H386V297c0,9.65,15,9.67,15,0V217.14c0-9.65-15-9.67-15,0V464c0,9.65,15,9.67,15,0Z" transform="translate(-71.78 -75.02)"/><path class="cls-4" d="M75.45,191.46l59,33.45c8.41,4.76,16-8.19,7.57-12.95l-19-10.78c-8.41-4.77-16,8.19-7.57,12.95l19,10.78L142.06,212,83,178.51c-8.41-4.76-16,8.19-7.57,13Z" transform="translate(-71.78 -75.02)"/><path class="cls-4" d="M76.24,278.64l58.25,33c8.41,4.77,16-8.19,7.57-12.95l-18.77-10.64c-8.42-4.76-16,8.19-7.58,13l18.78,10.63,7.57-12.95-58.25-33c-8.41-4.76-16,8.19-7.57,12.95Z" transform="translate(-71.78 -75.02)"/><path class="cls-4" d="M397.92,223.62l59.13-32.4-7.58-12.95-19.06,10.44c-8.46,4.64-.9,17.6,7.58,13l19.06-10.45c8.46-4.64.9-17.59-7.58-12.95l-59.12,32.4c-8.47,4.64-.91,17.59,7.57,13Z" transform="translate(-71.78 -75.02)"/><path class="cls-4" d="M272.26,540.94c61.93-32.53,122.85-66.94,184.79-99.48,8.54-4.49,1-17.44-7.58-12.95l-61.15,32.1c-8.55,4.49-1,17.44,7.57,13l61.16-32.11-7.58-12.95C387.54,461,326.62,495.46,264.69,528c-8.55,4.49-1,17.44,7.57,13Z" transform="translate(-71.78 -75.02)"/><path class="cls-4" d="M268.71,85c3.22,0,3.23-5,0-5s-3.22,5,0,5Z" transform="translate(-71.78 -75.02)"/></g><g id="Layer_4" data-name="Layer 4"><image width="512" height="512" transform="translate(11.06 42.98) scale(0.76)" xlink:href="../../../Art/Photoshop/flash.png"/></g></svg>